<?xml version="1.0" encoding="utf-8"?>
<!-- Generator: Adobe Illustrator 23.0.2, SVG Export Plug-In . SVG Version: 6.00 Build 0)  -->
<svg version="1.1" xmlns="http://www.w3.org/2000/svg" xmlns:xlink="http://www.w3.org/1999/xlink" x="0px" y="0px"
	 viewBox="0 0 500 500" style="enable-background:new 0 0 500 500;" xml:space="preserve">
<style type="text/css">
	.st0{fill:#EBEBEB;}
	.st1{fill:#E0E0E0;}
	.st2{fill:#F0F0F0;}
	.st3{display:none;}
	.st4{display:inline;}
	.st5{fill:#407BFF;}
	.st6{opacity:0.9;fill:#FFFFFF;}
	.st7{fill:#F5F5F5;}
	.st8{fill:#263238;}
	.st9{opacity:0.3;fill:#407BFF;}
	.st10{fill:#FFFFFF;}
	.st11{opacity:0.3;fill:#FFFFFF;}
	.st12{opacity:0.2;}
</style>
<g id="Background_Complete">
	<g>
		<rect y="382.4" class="st0" width="500" height="0.25"/>
		<rect x="428.22" y="398.49" class="st0" width="21.68" height="0.25"/>
		<rect x="310.56" y="393.31" class="st0" width="34.11" height="0.25"/>
		<rect x="396.59" y="389.21" class="st0" width="44.53" height="0.25"/>
		<rect x="161.88" y="394.25" class="st0" width="11.14" height="0.25"/>
		<rect x="114.58" y="394.25" class="st0" width="38.39" height="0.25"/>
		<rect x="66.31" y="390.03" class="st0" width="27.7" height="0.25"/>
		<path class="st0" d="M237.01,337.8H43.92c-3.15,0-5.71-2.56-5.71-5.71V60.66c0-3.15,2.56-5.71,5.71-5.71h193.1
			c3.15,0,5.71,2.56,5.71,5.71v271.43C242.72,335.24,240.16,337.8,237.01,337.8z M43.92,55.2c-3.01,0-5.46,2.45-5.46,5.46v271.43
			c0,3.01,2.45,5.46,5.46,5.46h193.1c3.01,0,5.46-2.45,5.46-5.46V60.66c0-3.01-2.45-5.46-5.46-5.46H43.92z"/>
		<path class="st0" d="M453.31,337.8h-193.1c-3.15,0-5.71-2.56-5.71-5.71V60.66c0-3.15,2.56-5.71,5.71-5.71h193.1
			c3.15,0,5.71,2.56,5.71,5.71v271.43C459.02,335.24,456.46,337.8,453.31,337.8z M260.21,55.2c-3.01,0-5.46,2.45-5.46,5.46v271.43
			c0,3.01,2.45,5.46,5.46,5.46h193.1c3.01,0,5.46-2.45,5.46-5.46V60.66c0-3.01-2.45-5.46-5.46-5.46H260.21z"/>
	</g>
	<g>
		<g>
			<path class="st0" d="M216.07,200.88l0.45-13.14l-8.07-2.64c-0.33-4.49-1.08-8.92-2.15-13.2l6.84-5.04l-4.65-12.34l-8.46,0.68
				c-2.02-3.99-4.39-7.79-7.04-11.35l4.38-7.31l-9.01-9.61l-7.56,3.87c-3.41-2.89-7-5.52-10.84-7.83l1.22-8.39l-12-5.45l-5.5,6.44
				c-4.19-1.36-8.53-2.38-13.02-3.05l-2.04-8.23l-13.18-0.45l-2.6,8.07c-4.53,0.37-8.92,1.08-13.2,2.15l-5.08-6.8l-12.34,4.61
				l0.68,8.46c-3.99,2.05-7.79,4.42-11.35,7.07l-7.28-4.38l-9.65,8.97l3.87,7.6c-2.89,3.37-5.52,7-7.8,10.84l-8.39-1.26l-5.48,12
				l6.48,5.5c-1.36,4.19-2.41,8.56-3.05,13.02l-8.26,2.08l-0.45,13.14l8.1,2.64c0.33,4.52,1.08,8.92,2.15,13.19l-6.84,5.04
				l4.65,12.34l8.46-0.68c2.02,3.99,4.39,7.79,7.04,11.35l-4.38,7.31l9.01,9.61l7.56-3.87c3.37,2.89,7,5.52,10.84,7.84l-1.26,8.39
				l12,5.45l5.53-6.44c4.19,1.36,8.53,2.38,13.02,3.05l2.04,8.23l13.18,0.45l2.6-8.07c4.52-0.37,8.92-1.08,13.19-2.15l5.04,6.8
				l12.34-4.61l-0.65-8.46c3.99-2.05,7.75-4.42,11.35-7.08l7.28,4.38l9.65-8.97l-3.87-7.6c2.89-3.37,5.52-7,7.8-10.84l8.39,1.26
				l5.48-12l-6.48-5.5c1.36-4.19,2.41-8.53,3.05-13.02L216.07,200.88z M127.28,243.45c-28.78-0.99-51.31-25.12-50.33-53.9
				c0.99-28.81,25.12-51.35,53.9-50.36c28.78,0.99,51.31,25.12,50.33,53.93C180.19,221.9,156.05,244.44,127.28,243.45z"/>
		</g>
		<g>
			<path class="st0" d="M440.96,157.42l3.31-3.09l-1.32-2.61c1.01-1.18,1.91-2.44,2.69-3.74l2.9,0.44l1.88-4.14l-2.23-1.9
				c0.48-1.46,0.83-2.97,1.05-4.48l2.85-0.71l0.15-4.54l-2.79-0.9c-0.12-1.54-0.36-3.05-0.73-4.55l2.35-1.75l-1.6-4.25l-2.91,0.23
				c-0.69-1.35-1.5-2.66-2.43-3.92l1.51-2.5l-3.1-3.32l-2.6,1.33c-1.19-1.01-2.44-1.91-3.74-2.69l0.42-2.9l-4.13-1.89l-1.9,2.23
				c-1.47-0.47-2.98-0.82-4.49-1.04l-0.71-2.84l-4.54-0.16l-0.91,2.8c-1.53,0.12-3.05,0.36-4.55,0.74l-1.74-2.35l-4.26,1.59
				l0.24,2.92c-1.35,0.69-2.68,1.5-3.92,2.43l-2.52-1.51l-3.31,3.09l1.33,2.62c-1.02,1.18-1.91,2.44-2.69,3.74l-2.9-0.44l-1.88,4.14
				l2.23,1.9c-0.48,1.46-0.83,2.97-1.05,4.48l-2.85,0.71l-0.15,4.54l2.79,0.9c0.12,1.53,0.36,3.05,0.73,4.55l-2.35,1.74l1.6,4.25
				l2.92-0.22c0.69,1.35,1.5,2.66,2.43,3.92l-1.51,2.5l3.1,3.32l2.6-1.33c1.19,1.01,2.44,1.91,3.74,2.69l-0.43,2.89l4.13,1.89
				l1.9-2.22c1.47,0.47,2.97,0.81,4.49,1.04l0.71,2.84l4.54,0.16l0.91-2.8c1.53-0.12,3.05-0.36,4.55-0.74l1.74,2.35l4.26-1.59
				l-0.24-2.92c1.35-0.69,2.67-1.49,3.92-2.43L440.96,157.42z M417.34,138.29c-2.44-2.61-2.3-6.71,0.31-9.14
				c2.61-2.44,6.71-2.3,9.15,0.31c2.44,2.61,2.3,6.71-0.32,9.15C423.87,141.04,419.78,140.9,417.34,138.29z"/>
		</g>
		<path class="st0" d="M319.99,292.34l-10.34-7.14c0-0.01,0-0.02-0.01-0.02c-1.02-3.76-2.43-7.37-4.16-10.77l2.65-10.4l-15-16.06
			l-10.56,1.93c-3.27-1.95-6.78-3.61-10.45-4.88c-0.01,0-0.02,0-0.03-0.01l-6.42-10.81l-21.96-0.75l-7.14,10.34
			c-0.01,0-0.03,0.01-0.04,0.01c-3.75,1.02-7.37,2.43-10.76,4.15l-10.39-2.65l-16.06,15l1.93,10.54c0,0,0,0.01-0.01,0.01
			c-1.99,3.31-3.61,6.82-4.88,10.49l-10.81,6.42l-0.75,21.97l10.35,7.15c1.02,3.78,2.39,7.39,4.15,10.82c0,0,0,0,0,0l-2.64,10.37
			l15,16.06l10.49-1.92c3.31,1.96,6.83,3.61,10.55,4.89c0,0,0.01,0,0.01,0l6.41,10.79l21.96,0.75l7.14-10.33
			c3.8-1.02,7.42-2.43,10.85-4.16c0,0,0,0,0,0l10.35,2.64l16.06-15l-1.93-10.54c1.99-3.31,3.61-6.82,4.88-10.5c0,0,0,0,0,0
			l10.81-6.42L319.99,292.34z M251.54,325.73c-13.65-0.47-24.32-11.93-23.85-25.55c0.47-13.65,11.89-24.32,25.55-23.85
			c13.65,0.47,24.32,11.89,23.85,25.55C276.62,315.49,265.19,326.19,251.54,325.73z"/>
		<path class="st0" d="M343.55,229.95c-0.02,0-0.05,0-0.07,0l-17.32-0.59c-0.72-0.02-1.38-0.41-1.74-1.03l-4.66-7.85
			c-2.48-0.9-4.92-2.03-7.28-3.38l-7.51,1.37c-0.71,0.13-1.43-0.11-1.92-0.64l-11.83-12.66c-0.49-0.53-0.68-1.27-0.5-1.96l1.89-7.41
			c-1.15-2.35-2.11-4.85-2.86-7.47l-7.53-5.2c-0.59-0.41-0.94-1.09-0.91-1.81l0.59-17.32c0.02-0.72,0.41-1.38,1.03-1.74l7.87-4.67
			c0.93-2.55,2.06-4.99,3.37-7.25l-1.38-7.53c-0.13-0.71,0.11-1.43,0.64-1.92l12.67-11.83c0.53-0.49,1.27-0.68,1.96-0.5l7.43,1.9
			c2.41-1.17,4.9-2.13,7.45-2.87l5.2-7.53c0.41-0.59,1.08-0.96,1.81-0.91l17.32,0.59c0.72,0.02,1.38,0.41,1.74,1.03l4.67,7.87
			c2.48,0.91,4.91,2.04,7.23,3.37l7.55-1.38c0.71-0.13,1.43,0.11,1.92,0.64l11.83,12.67c0.49,0.53,0.68,1.27,0.5,1.96l-1.9,7.44
			c1.17,2.41,2.13,4.9,2.87,7.45l7.52,5.2c0.59,0.41,0.93,1.09,0.91,1.81l-0.59,17.32c-0.02,0.72-0.41,1.38-1.03,1.74l-7.87,4.67
			c-0.93,2.55-2.06,4.98-3.37,7.24l1.38,7.54c0.13,0.71-0.11,1.43-0.64,1.92l-12.66,11.82c-0.53,0.49-1.26,0.68-1.96,0.5l-7.4-1.89
			c-2.44,1.18-4.95,2.14-7.49,2.87l-5.19,7.52C344.89,229.61,344.24,229.95,343.55,229.95z M327.46,225.18l15.01,0.51l4.97-7.2
			c0.28-0.41,0.71-0.71,1.19-0.84c2.76-0.74,5.51-1.79,8.15-3.13c0,0,0.01,0,0.01-0.01c0.44-0.22,0.96-0.28,1.46-0.15l7.04,1.79
			l10.98-10.25l-1.31-7.17c-0.09-0.51,0-1.03,0.27-1.47c1.45-2.4,2.68-5.04,3.65-7.83c0.16-0.5,0.5-0.91,0.94-1.17l7.52-4.47
			l0.51-15.01l-7.2-4.97c-0.38-0.26-0.66-0.64-0.8-1.07c-0.02-0.05-0.03-0.11-0.05-0.17c-0.75-2.76-1.8-5.47-3.11-8.05
			c-0.23-0.46-0.29-0.98-0.16-1.48l1.8-7.08l-10.25-10.98l-7.19,1.32c-0.5,0.09-1.02,0-1.46-0.26c-2.5-1.49-5.14-2.72-7.85-3.67
			c-0.15-0.05-0.31-0.12-0.44-0.21c-0.29-0.18-0.53-0.43-0.71-0.72l-4.47-7.53l-15.01-0.51l-4.97,7.2c-0.3,0.43-0.74,0.73-1.24,0.85
			c-2.78,0.76-5.48,1.8-8.05,3.11c-0.46,0.23-0.98,0.29-1.48,0.16l-7.08-1.8l-10.98,10.25l1.31,7.17c0.08,0.45,0.02,0.92-0.19,1.32
			c-0.03,0.06-0.06,0.11-0.1,0.17c-1.45,2.41-2.68,5.06-3.65,7.86c-0.16,0.47-0.49,0.87-0.92,1.12l-7.53,4.47l-0.51,15.01l7.21,4.98
			c0.41,0.28,0.71,0.7,0.84,1.19c0.78,2.88,1.82,5.61,3.11,8.12c0.07,0.14,0.13,0.3,0.17,0.45c0.08,0.34,0.08,0.69,0,1.03l-1.8,7.05
			l10.25,10.98l7.14-1.31c0.5-0.09,1.02,0,1.45,0.26c2.54,1.5,5.2,2.74,7.89,3.66c0.49,0.15,0.91,0.48,1.17,0.93L327.46,225.18z
			 M352.24,130.37L352.24,130.37L352.24,130.37z M336.73,206.21c-0.37,0-0.74-0.01-1.11-0.02c-17.45-0.6-31.15-15.28-30.56-32.72
			c0.6-17.45,15.3-31.15,32.72-30.56c17.45,0.6,31.15,15.28,30.56,32.72c-0.29,8.44-3.85,16.27-10.03,22.04
			C352.4,203.21,344.77,206.21,336.73,206.21z M336.69,147.12c-14.7,0-26.9,11.7-27.41,26.5c-0.52,15.12,11.36,27.84,26.48,28.36
			c7.33,0.25,14.31-2.37,19.67-7.38c5.35-5,8.44-11.79,8.69-19.1c0.52-15.12-11.36-27.84-26.48-28.36
			C337.32,147.13,337.01,147.12,336.69,147.12z"/>
		<g>
			<polygon class="st1" points="383.44,105.32 376.27,103.4 374.34,96.22 377.15,93.42 380.11,99.55 386.25,102.51 			"/>
			<path class="st1" d="M383.88,100.52c1.31-1.31,1.31-3.44,0-4.74c-1.31-1.31-3.43-1.3-4.73,0.01l3.57-5.35l4.79,2.42l1.05,5.03
				L383.88,100.52z"/>
			<path class="st2" d="M376.58,93.98l5.26-5.26l7.17,1.93l1.93,7.17l-5.26,5.26l-7.17-1.93L376.58,93.98z M386.13,98.28
				c1.31-1.31,1.31-3.44,0-4.74c-1.31-1.31-3.43-1.3-4.73,0.01c-1.31,1.31-1.31,3.42,0,4.72C382.7,99.58,384.82,99.59,386.13,98.28z
				"/>
		</g>
		<g>
			<polygon class="st1" points="90.22,296.71 94.07,295.67 95.1,291.83 93.6,290.32 92.01,293.61 88.71,295.2 			"/>
			<path class="st1" d="M89.98,294.13c-0.7-0.7-0.7-1.84,0-2.55c0.7-0.7,1.84-0.7,2.54,0.01l-1.91-2.87l-2.57,1.3l-0.56,2.7
				L89.98,294.13z"/>
			<path class="st2" d="M93.9,290.62l-2.82-2.82l-3.85,1.03l-1.03,3.85l2.82,2.82l3.85-1.03L93.9,290.62z M88.78,292.93
				c-0.7-0.7-0.7-1.84,0-2.55c0.7-0.7,1.84-0.7,2.54,0.01s0.7,1.83,0,2.54C90.62,293.62,89.48,293.63,88.78,292.93z"/>
		</g>
		<g>
			<path class="st2" d="M76.36,85.66l3.19,3.19c0.83,0.83,2.19,0.83,3.03,0l0,0c0.83-0.83,0.83-2.19,0-3.02l-3.19-3.19
				c-0.83-0.83-2.19-0.83-3.02,0l0,0C75.53,83.47,75.53,84.83,76.36,85.66z"/>
			<path class="st1" d="M74.11,77.71c2.46-0.88,5.13,0.27,5.96,2.58c0.83,2.31-0.49,4.9-2.95,5.79c-2.46,0.88-5.13-0.27-5.96-2.58
				C70.33,81.18,71.65,78.59,74.11,77.71z"/>
			
				<rect x="74.93" y="76.84" transform="matrix(-0.338 -0.9411 0.9411 -0.338 24.1067 180.7352)" class="st2" width="1.37" height="10.1"/>
		</g>
	</g>
</g>
<g id="Background_Simple" class="st3">
	<g class="st4">
		<path class="st5" d="M418.91,125.42c39.29,31.84,35.52,75.55,1.84,100.47c-16.15,11.95-48.67,9.64-67.17,18.07
			c-24.13,11.01-36.38,31.39-54.87,47.66c-45.99,40.48-60.95,20.47-113.32,21c-36.82,0.37-71.81,31.4-108.7,10.1
			c-45.08-26.04-17.16-78.18,19.64-98.31c42.27-23.12,15.68-77.47,76.48-117.51C232.65,67.52,360.56,76.81,418.91,125.42z"/>
		<path class="st6" d="M418.91,125.42c39.29,31.84,35.52,75.55,1.84,100.47c-16.15,11.95-48.67,9.64-67.17,18.07
			c-24.13,11.01-36.38,31.39-54.87,47.66c-45.99,40.48-60.95,20.47-113.32,21c-36.82,0.37-71.81,31.4-108.7,10.1
			c-45.08-26.04-17.16-78.18,19.64-98.31c42.27-23.12,15.68-77.47,76.48-117.51C232.65,67.52,360.56,76.81,418.91,125.42z"/>
	</g>
</g>
<g id="Shadow_1_">
	<ellipse id="_x3C_Path_x3E__373_" class="st7" cx="250" cy="416.24" rx="193.89" ry="11.32"/>
</g>
<g id="Oops_x21_">
	<g>
		<path class="st8" d="M86.72,120.65c-1-4.4-0.55-8.11,1.34-11.12c1.9-3.01,5.03-5.01,9.41-6.01c4.49-1.02,8.22-0.6,11.2,1.26
			c2.98,1.86,4.96,4.96,5.95,9.3c0.72,3.15,0.77,5.86,0.17,8.12c-0.6,2.26-1.78,4.18-3.53,5.76c-1.75,1.58-4.12,2.71-7.12,3.39
			c-3.04,0.69-5.67,0.78-7.88,0.26c-2.21-0.52-4.18-1.68-5.89-3.5C88.65,126.28,87.43,123.8,86.72,120.65z M95.06,118.79
			c0.62,2.72,1.57,4.57,2.85,5.52c1.28,0.96,2.79,1.24,4.54,0.84c1.79-0.41,3.04-1.3,3.76-2.69s0.73-3.59,0.05-6.61
			c-0.58-2.54-1.51-4.28-2.8-5.22c-1.29-0.94-2.81-1.21-4.57-0.81c-1.68,0.38-2.9,1.28-3.64,2.7
			C94.5,113.96,94.43,116.04,95.06,118.79z"/>
		<path class="st8" d="M118.59,117.35c-0.68-2.98-0.23-5.67,1.34-8.06c1.57-2.39,4.07-3.97,7.49-4.75c3.91-0.89,7.13-0.43,9.64,1.39
			c2.02,1.46,3.34,3.53,3.95,6.21c0.68,3.01,0.25,5.7-1.31,8.07c-1.56,2.37-4.1,3.96-7.62,4.76c-3.14,0.71-5.86,0.5-8.16-0.66
			C121.1,122.87,119.32,120.55,118.59,117.35z M126.1,115.62c0.4,1.74,1.04,2.95,1.94,3.62c0.89,0.67,1.88,0.89,2.94,0.65
			c1.08-0.25,1.87-0.86,2.38-1.84c0.51-0.98,0.55-2.38,0.14-4.19c-0.39-1.69-1.02-2.88-1.91-3.54c-0.89-0.67-1.85-0.89-2.88-0.65
			c-1.09,0.25-1.9,0.87-2.42,1.88C125.77,112.54,125.71,113.91,126.1,115.62z"/>
		<path class="st8" d="M148.58,128.57l-6.13-26.98l7.01-1.59l0.66,2.89c0.69-1.43,1.4-2.46,2.11-3.07c0.96-0.82,2.1-1.39,3.43-1.69
			c2.61-0.59,4.86-0.05,6.74,1.62c1.88,1.67,3.16,3.98,3.83,6.93c0.74,3.25,0.52,5.91-0.64,7.97c-1.17,2.07-2.94,3.37-5.32,3.91
			c-1.15,0.26-2.25,0.3-3.29,0.13c-1.04-0.18-2.02-0.57-2.95-1.17l2.12,9.33L148.58,128.57z M152.19,109.71
			c0.35,1.55,0.94,2.62,1.76,3.22c0.82,0.6,1.73,0.79,2.72,0.56c0.87-0.2,1.52-0.72,1.95-1.57c0.43-0.85,0.44-2.14,0.05-3.85
			c-0.36-1.58-0.93-2.67-1.71-3.28c-0.78-0.6-1.61-0.8-2.5-0.6c-0.96,0.22-1.67,0.77-2.14,1.67
			C151.85,106.74,151.81,108.03,152.19,109.71z"/>
		<path class="st8" d="M169.43,110.3l7.27-2.39c0.51,0.81,1.08,1.35,1.72,1.6c0.64,0.25,1.42,0.28,2.34,0.07
			c1.01-0.23,1.74-0.62,2.19-1.17c0.36-0.42,0.48-0.86,0.37-1.34c-0.12-0.54-0.5-0.89-1.13-1.06c-0.45-0.12-1.58-0.13-3.4-0.04
			c-2.7,0.14-4.61,0.13-5.71-0.03c-1.1-0.16-2.1-0.62-3-1.38c-0.9-0.76-1.49-1.73-1.75-2.91c-0.29-1.29-0.17-2.48,0.37-3.58
			c0.54-1.1,1.41-2.03,2.62-2.79c1.21-0.76,2.92-1.39,5.12-1.89c2.33-0.53,4.09-0.74,5.28-0.64c1.19,0.1,2.24,0.45,3.15,1.02
			c0.91,0.58,1.76,1.45,2.54,2.62l-6.94,2.31c-0.33-0.58-0.74-0.97-1.23-1.17c-0.68-0.26-1.43-0.29-2.27-0.1
			c-0.85,0.19-1.43,0.48-1.75,0.87c-0.32,0.39-0.43,0.8-0.33,1.23c0.11,0.48,0.44,0.78,0.98,0.92c0.55,0.13,1.66,0.11,3.35-0.07
			c2.55-0.28,4.5-0.31,5.82-0.09c1.33,0.23,2.42,0.73,3.28,1.52c0.86,0.79,1.41,1.74,1.66,2.85c0.26,1.13,0.17,2.3-0.27,3.52
			c-0.44,1.22-1.32,2.31-2.64,3.28c-1.32,0.96-3.25,1.73-5.77,2.31c-3.57,0.81-6.23,0.88-7.97,0.21
			C171.59,113.3,170.29,112.08,169.43,110.3z"/>
		<path class="st8" d="M193.85,85.57l8.21-0.05l0.04,6.3l-1.51,12.67l-5.08,0.03l-1.62-12.65L193.85,85.57z M194.25,106.45
			l7.66-0.04l0.04,6.77l-7.66,0.04L194.25,106.45z"/>
	</g>
</g>
<g id="_x34_04">
	<g>
		<g>
			<path class="st8" d="M128.68,171.58c-0.06,0-0.12-0.01-0.18-0.03c-4.5-1.74-7.19-3.45-8.59-5.49c-1.02,0.2-2.15,0.07-3.23-0.44
				c-1.05-0.5-2.06-1.37-2.78-2.62c-0.68,0.52-1.51,0.66-2.43,0.38c-1.02-0.32-2.07-1.17-2.95-2.41c-0.56,0.4-1.13,0.46-1.55,0.43
				c-2.97-0.24-7-6.16-7.29-12.47c-0.01-0.28,0.2-0.51,0.48-0.52c0.27-0.02,0.51,0.2,0.52,0.48c0.27,5.99,4.11,11.33,6.37,11.51
				c0.37,0.04,0.67-0.08,0.93-0.28c-1.36-2.38-2.06-5.78-1.02-9.41c0.86-3,1.62-4.18,2.53-3.96c1.72,0.43,1.5,6.97,0.58,11.29
				c-0.21,0.98-0.51,1.68-0.85,2.18c0.79,1.17,1.72,1.95,2.54,2.21c0.73,0.23,1.27,0.04,1.67-0.35c-0.79-1.94-0.95-4.57,0.12-7.94
				c1.4-4.43,1.97-4.55,2.31-4.62c0.24-0.05,0.48,0.03,0.64,0.22c0.92,1.04-0.18,7.92-1.34,11.32c-0.15,0.44-0.34,0.83-0.56,1.16
				c0.62,1.22,1.54,2.05,2.49,2.5c0.77,0.37,1.56,0.5,2.27,0.43c-0.09-0.19-0.17-0.38-0.24-0.58c-0.79-2.15-0.41-4.63,1.18-7.58
				c1.06-1.96,1.92-2.87,2.71-2.87c0,0,0,0,0,0c0.24,0,0.67,0.09,0.99,0.66c0.87,1.61,0.24,6.92-1.48,9.55
				c-0.41,0.62-0.97,1.09-1.62,1.4c1.34,1.76,3.88,3.31,7.95,4.89c0.26,0.1,0.39,0.39,0.29,0.65
				C129.07,171.46,128.88,171.58,128.68,171.58z M123.03,155.11c0,0-0.57,0-1.83,2.35c-1.45,2.68-1.81,4.89-1.13,6.76
				c0.08,0.23,0.18,0.45,0.3,0.67c0.53-0.23,0.99-0.6,1.32-1.1c1.4-2.14,2.07-6.54,1.55-8.26
				C123.14,155.17,123.03,155.11,123.03,155.11z M115.85,150.9c-0.26,0.49-0.69,1.48-1.34,3.53c-0.86,2.71-0.86,4.88-0.38,6.55
				c0.03-0.08,0.06-0.17,0.09-0.25C115.4,157.29,115.97,152.55,115.85,150.9z M109.27,147.75c-0.17,0.16-0.65,0.79-1.35,3.22
				c-0.92,3.21-0.35,6.14,0.73,8.25c0.21-0.43,0.35-0.93,0.45-1.4C110.13,152.9,109.83,148.46,109.27,147.75z"/>
			<path class="st8" d="M166.7,224c-1.52,0-3.13-0.35-4.56-1.19c-0.24-0.14-0.32-0.45-0.18-0.68c0.14-0.24,0.45-0.32,0.68-0.18
				c3.57,2.09,8.18,0.63,9.13-0.89c0.11-0.18,0.21-0.41,0.15-0.67c-1.41,0.15-3.15-0.22-5.13-1.47c-2.54-1.59-2.74-2.06-2.73-2.44
				c0.01-0.22,0.14-0.42,0.34-0.52c1-0.5,5.51,1.57,7.39,2.81c0.25,0.16,0.45,0.34,0.62,0.52c0.83-0.2,1.48-0.63,1.9-1.15
				c0.29-0.35,0.49-0.74,0.59-1.12c-0.07,0.01-0.13,0.02-0.2,0.02c-1.6,0.16-3.2-0.53-4.91-2.1c-1.17-1.09-1.63-1.83-1.48-2.43
				c0.05-0.19,0.21-0.53,0.72-0.65c1.38-0.34,4.8,1.11,6.19,2.64c0.31,0.34,0.53,0.75,0.64,1.18c1.3-0.61,2.68-1.99,4.32-4.27
				c0.16-0.22,0.47-0.28,0.7-0.12c0.22,0.16,0.28,0.47,0.12,0.7c-1.89,2.64-3.46,4.14-5.05,4.75c-0.06,0.7-0.35,1.42-0.87,2.04
				c-0.51,0.61-1.25,1.13-2.18,1.41c0.1,0.45,0.01,0.93-0.28,1.39C171.78,222.94,169.36,224,166.7,224z M165.81,217.06
				c0.34,0.25,0.82,0.58,1.51,1.01c1.36,0.85,2.57,1.24,3.6,1.32C169.26,218.36,167.09,217.45,165.81,217.06z M169.3,212.81
				c0.06,0.16,0.28,0.57,1.17,1.39c1.49,1.37,2.84,1.99,4.13,1.84c0.11-0.01,0.21-0.03,0.32-0.05c-0.07-0.3-0.22-0.58-0.43-0.83
				C173.08,213.63,169.98,212.65,169.3,212.81z"/>
			<path class="st5" d="M179.94,222.63l-15.58,2.83l-14.15-77.21l-30.06,5.46l-48.99,87l5.26,28.71L139.26,258l4.3,23.48l30.06-5.46
				l-4.3-23.48l15.58-2.83L179.94,222.63z M101.09,236.95l25.96-45.57l7.24,39.54L101.09,236.95z"/>
		</g>
		<g>
			<path class="st5" d="M305.43,142.99c-0.58-5.33-1.65-10.07-3.2-14.22c-1.55-4.14-3.88-8.21-6.99-12.19
				c-3.11-3.98-7.35-7.44-12.7-10.37c-5.36-2.93-12.43-4.97-21.22-6.11c-18.29-2.38-32.55,0.86-42.78,9.74
				c-10.23,8.88-16.96,25.88-20.2,51.01c-1.32,10.22-1.64,19.67-0.98,28.34c0.66,8.68,2.26,15.65,4.78,20.93
				c3.45,7.42,8.33,13.34,14.65,17.77c6.31,4.43,14.96,7.36,25.95,8.79c19.6,2.55,34.12-1.21,43.57-11.29
				c9.45-10.08,15.72-27.11,18.81-51.1C306.49,163.61,306.59,153.17,305.43,142.99z"/>
			<path class="st8" d="M251.77,226.43c-2.4-0.08-4.96-0.3-7.61-0.64c-9.15-1.19-16.24-3.51-21.05-6.89
				c-4.75-3.33-8.35-7.72-10.99-13.41l-0.05-0.1c-1.92-4.02-3.18-9.75-3.73-17.03c-0.61-7.89-0.3-16.67,0.92-26.1
				c3.57-27.72,10.94-39.29,16.5-44.11c6.48-5.62,15.22-8.16,26.73-7.77c2.36,0.08,4.86,0.29,7.42,0.63
				c7.39,0.96,13.23,2.6,17.37,4.86c4.01,2.19,7.14,4.71,9.31,7.49c2.4,3.08,4.2,6.19,5.35,9.27c1.22,3.27,2.09,7.16,2.57,11.56
				c1.07,9.31,0.96,18.95-0.29,28.72c-2.77,21.54-8.13,36.67-15.92,44.98C272.5,224.05,263.83,226.85,251.77,226.43
				C251.77,226.43,251.77,226.43,251.77,226.43z"/>
			<g>
				<path class="st5" d="M271.34,143.29l0.13-3.79l-2.33-0.76c-0.1-1.29-0.31-2.57-0.62-3.8l1.97-1.45l-1.34-3.56l-2.44,0.2
					c-0.58-1.15-1.26-2.24-2.03-3.27l1.26-2.11l-2.6-2.77l-2.18,1.12c-0.98-0.83-2.02-1.59-3.12-2.26l0.35-2.42l-3.46-1.57
					l-1.58,1.86c-1.21-0.39-2.46-0.68-3.75-0.88l-0.59-2.37l-3.8-0.13l-0.75,2.33c-1.3,0.11-2.57,0.31-3.8,0.62l-1.46-1.96
					l-3.56,1.33l0.2,2.44c-1.15,0.59-2.24,1.27-3.27,2.04l-2.1-1.26l-2.78,2.59l1.12,2.19c-0.83,0.97-1.59,2.02-2.25,3.13
					l-2.42-0.36l-1.58,3.46l1.87,1.58c-0.39,1.21-0.7,2.47-0.88,3.75l-2.38,0.6l-0.13,3.79l2.34,0.76c0.1,1.3,0.31,2.57,0.62,3.8
					l-1.97,1.45l1.34,3.56l2.44-0.2c0.58,1.15,1.26,2.24,2.03,3.27l-1.26,2.11l2.6,2.77l2.18-1.12c0.97,0.83,2.02,1.59,3.12,2.26
					l-0.36,2.42l3.46,1.57l1.59-1.86c1.21,0.39,2.46,0.68,3.75,0.88l0.59,2.37l3.8,0.13l0.75-2.33c1.3-0.11,2.57-0.31,3.8-0.62
					l1.45,1.96l3.56-1.33l-0.19-2.44c1.15-0.59,2.24-1.27,3.27-2.04l2.1,1.26l2.78-2.59l-1.12-2.19c0.83-0.97,1.59-2.02,2.25-3.13
					l2.42,0.36l1.58-3.46l-1.87-1.58c0.39-1.21,0.69-2.46,0.88-3.75L271.34,143.29z M245.74,155.56
					c-8.3-0.28-14.79-7.24-14.51-15.54c0.28-8.31,7.24-14.8,15.54-14.52c8.3,0.28,14.79,7.24,14.51,15.55
					C260.99,149.35,254.04,155.84,245.74,155.56z"/>
			</g>
			<g>
				<path class="st9" d="M287.12,212.87l0.27-2.55l-1.53-0.63c-0.01-0.88-0.08-1.75-0.23-2.59l1.4-0.89l-0.71-2.47l-1.66,0.01
					c-0.34-0.81-0.73-1.58-1.2-2.31l0.95-1.36l-1.61-2l-1.53,0.64c-0.61-0.61-1.27-1.17-1.99-1.67l0.37-1.63l-2.25-1.24l-1.18,1.19
					c-0.81-0.34-1.64-0.59-2.48-0.79l-0.28-1.64l-2.55-0.29l-0.63,1.53c-0.88,0.01-1.74,0.09-2.59,0.24l-0.89-1.41l-2.47,0.72
					l0.01,1.66c-0.8,0.34-1.57,0.73-2.31,1.2l-1.36-0.96l-2,1.61l0.64,1.53c-0.59,0.61-1.17,1.27-1.67,1.99l-1.61-0.36l-1.24,2.25
					l1.18,1.16c-0.33,0.82-0.59,1.64-0.79,2.49l-1.64,0.27l-0.27,2.55l1.53,0.64c-0.01,0.87,0.08,1.73,0.23,2.58l-1.41,0.89
					l0.72,2.47l1.66,0c0.34,0.8,0.73,1.57,1.2,2.3l-0.96,1.36l1.6,2.01l1.54-0.65c0.61,0.61,1.27,1.17,1.99,1.67l-0.37,1.63
					l2.25,1.24l1.18-1.18c0.81,0.33,1.64,0.58,2.48,0.78l0.28,1.64l2.55,0.29l0.63-1.54c0.87-0.01,1.74-0.09,2.59-0.24l0.89,1.41
					l2.46-0.72l0-1.66c0.8-0.34,1.57-0.73,2.31-1.2l1.35,0.96l2.01-1.6l-0.65-1.53c0.61-0.61,1.17-1.27,1.68-1.99l1.61,0.36
					l1.24-2.25l-1.18-1.16c0.33-0.82,0.58-1.64,0.78-2.48L287.12,212.87z M274.25,211.87c-1.19,2.16-3.9,2.96-6.06,1.77
					c-2.16-1.19-2.94-3.9-1.76-6.06c1.19-2.16,3.89-2.94,6.05-1.76C274.64,207.01,275.43,209.71,274.25,211.87z"/>
			</g>
			<path class="st10" d="M301.29,169.65l-2.98-2.06c0,0,0,0,0-0.01c-0.29-1.08-0.7-2.13-1.2-3.1l0.76-3l-4.32-4.63l-3.04,0.56
				c-0.94-0.56-1.95-1.04-3.01-1.41c0,0-0.01,0-0.01,0l-1.85-3.12l-6.33-0.22l-2.06,2.98c0,0-0.01,0-0.01,0
				c-1.08,0.29-2.12,0.7-3.1,1.2l-3-0.76l-4.63,4.32l0.56,3.04c0,0,0,0,0,0c-0.57,0.95-1.04,1.97-1.41,3.02l-3.12,1.85l-0.22,6.33
				l2.98,2.06c0.29,1.09,0.69,2.13,1.2,3.12c0,0,0,0,0,0l-0.76,2.99l4.32,4.63l3.02-0.55c0.95,0.56,1.97,1.04,3.04,1.41c0,0,0,0,0,0
				l1.85,3.11l6.33,0.22l2.06-2.98c1.09-0.29,2.14-0.7,3.13-1.2c0,0,0,0,0,0l2.98,0.76l4.63-4.32l-0.56-3.04
				c0.57-0.95,1.04-1.97,1.41-3.03c0,0,0,0,0,0l3.12-1.85L301.29,169.65z M281.56,179.27c-3.94-0.13-7.01-3.44-6.88-7.36
				c0.13-3.94,3.43-7.01,7.36-6.88c3.94,0.13,7.01,3.43,6.88,7.36C288.79,176.32,285.49,179.41,281.56,179.27z"/>
			<path class="st5" d="M323.04,119.12l0.52-1.26c0,0,0,0,0,0c0.37-0.19,0.73-0.43,1.05-0.68l1.16,0.04l1.36-1.95l-0.44-1.07
				c0.13-0.39,0.23-0.8,0.28-1.22c0,0,0,0,0,0l1-0.92l-0.42-2.34l-1.26-0.52c0,0,0,0,0,0c-0.19-0.37-0.42-0.72-0.68-1.04l0.04-1.16
				l-1.95-1.36l-1.07,0.44c0,0,0,0,0,0c-0.4-0.14-0.8-0.23-1.22-0.28l-0.92-1l-2.34,0.42l-0.52,1.26c-0.38,0.19-0.73,0.42-1.05,0.68
				c0,0,0,0,0,0l-1.16-0.04l-1.36,1.95l0.44,1.07c-0.13,0.39-0.23,0.8-0.28,1.23c0,0,0,0,0,0l-1,0.92l0.42,2.34l1.26,0.52
				c0.19,0.38,0.43,0.73,0.69,1.05c0,0,0,0,0,0l-0.04,1.15l1.95,1.36l1.07-0.44c0.4,0.14,0.8,0.23,1.22,0.28c0,0,0,0,0,0l0.92,1
				L323.04,119.12z M317.95,112.64c-0.26-1.46,0.71-2.84,2.16-3.1c1.46-0.26,2.84,0.71,3.1,2.16s-0.71,2.84-2.16,3.1
				C319.61,115.06,318.21,114.09,317.95,112.64z"/>
			<path class="st5" d="M295.61,112.49l-0.76-0.64c1.33-1.57,3.21-3.56,6.01-5.03l0.46,0.89
				C298.33,109.26,296.42,111.52,295.61,112.49z"/>
			<path class="st5" d="M303.59,106.8l-0.39-0.92c3.78-1.62,7.73-2.25,11.74-1.88l-0.09,1C311,104.63,307.22,105.25,303.59,106.8z"
				/>
			<path class="st5" d="M301.7,113.72l-0.83-0.56c2.05-3.02,6.11-5.64,9.87-6.39l0.19,0.98C307.42,108.45,303.62,110.9,301.7,113.72
				z"/>
			<path class="st10" d="M235.34,209.96c-0.13,0-0.26-0.05-0.36-0.15l-2.1-2.16c-1.07-0.1-2.12-0.3-3.15-0.59l-3.27,1.44
				c-0.16,0.07-0.34,0.05-0.48-0.04l-5.48-3.63c-0.14-0.09-0.23-0.25-0.22-0.42l0.05-3.56c-0.67-0.83-1.26-1.73-1.77-2.68
				l-2.81-1.09c-0.16-0.06-0.28-0.2-0.31-0.37l-1.31-6.44c-0.03-0.17,0.02-0.34,0.14-0.46l2.16-2.1c0.1-1.06,0.3-2.12,0.58-3.15
				l-1.44-3.26c-0.07-0.16-0.05-0.34,0.04-0.48l3.63-5.48c0.09-0.14,0.23-0.23,0.42-0.22l3.56,0.05c0.84-0.67,1.74-1.26,2.68-1.76
				l1.09-2.81c0.06-0.16,0.2-0.28,0.37-0.31l6.44-1.31c0.17-0.03,0.34,0.02,0.46,0.14l2.09,2.16c1.06,0.1,2.12,0.3,3.15,0.59
				l3.26-1.44c0.16-0.07,0.34-0.05,0.48,0.04l5.48,3.63c0.14,0.09,0.23,0.25,0.22,0.42l-0.05,3.57c0.67,0.83,1.26,1.73,1.76,2.67
				l2.81,1.09c0.16,0.06,0.28,0.2,0.31,0.37l1.31,6.44c0.03,0.17-0.02,0.34-0.14,0.46l-2.16,2.1c-0.1,1.05-0.3,2.11-0.59,3.14
				l1.44,3.27c0.07,0.16,0.05,0.34-0.04,0.48l-3.63,5.47c-0.09,0.14-0.24,0.21-0.42,0.22l-3.56-0.05c-0.83,0.66-1.73,1.25-2.68,1.76
				l-1.09,2.81c-0.06,0.16-0.2,0.28-0.37,0.31l-6.44,1.31C235.41,209.95,235.38,209.96,235.34,209.96z M229.71,206.03
				c0.05,0,0.09,0.01,0.14,0.02c1.07,0.31,2.18,0.52,3.31,0.62c0.12,0.01,0.23,0.06,0.32,0.15l2.04,2.1l5.9-1.2l1.06-2.73
				c0.04-0.11,0.13-0.21,0.24-0.26c1-0.52,1.95-1.14,2.82-1.85c0.09-0.07,0.19-0.13,0.32-0.11l3.47,0.05l3.33-5.02l-1.4-3.18
				c-0.05-0.11-0.05-0.23-0.02-0.34c0.32-1.09,0.52-2.21,0.62-3.31c0.01-0.12,0.06-0.23,0.15-0.32l2.1-2.04l-1.2-5.9l-2.73-1.06
				c-0.12-0.04-0.21-0.13-0.27-0.24c-0.52-1-1.14-1.94-1.85-2.81c-0.08-0.09-0.12-0.21-0.11-0.33l0.05-3.47l-5.02-3.33l-3.18,1.4
				c-0.11,0.05-0.23,0.05-0.34,0.02c-1.08-0.32-2.2-0.52-3.32-0.62c-0.12-0.01-0.23-0.06-0.32-0.15l-2.03-2.1l-5.9,1.2l-1.06,2.73
				c-0.04,0.11-0.13,0.21-0.24,0.26c-1,0.52-1.94,1.14-2.82,1.85c-0.09,0.07-0.21,0.13-0.33,0.11l-3.47-0.05l-3.33,5.02l1.4,3.18
				c0.06,0.14,0.06,0.29-0.01,0.43c-0.28,1-0.49,2.11-0.58,3.23c-0.01,0.12-0.06,0.23-0.15,0.32l-2.1,2.04l1.2,5.9l2.73,1.06
				c0.12,0.05,0.22,0.14,0.27,0.26c0.52,0.99,1.14,1.93,1.84,2.79c0.08,0.09,0.12,0.21,0.12,0.33l-0.05,3.47l5.02,3.33l3.18-1.4
				C229.57,206.04,229.64,206.03,229.71,206.03z M234.62,202.79c-2.53,0-5.08-0.72-7.34-2.21c-2.97-1.97-4.99-4.97-5.7-8.46
				c-0.71-3.49-0.02-7.04,1.95-10.01c0,0,0,0,0,0c4.07-6.13,12.35-7.81,18.47-3.75c6.12,4.06,7.8,12.35,3.74,18.47
				C243.19,200.7,238.95,202.79,234.62,202.79z M224.37,182.66c-1.82,2.74-2.46,6.03-1.8,9.26c0.66,3.23,2.53,6,5.27,7.82
				c5.67,3.75,13.33,2.2,17.08-3.46c3.75-5.66,2.2-13.33-3.46-17.09C235.79,175.44,228.13,177,224.37,182.66L224.37,182.66z"/>
		</g>
		<g>
			<path class="st5" d="M425.83,231.65l-15.69-2.12l10.38-77.81l-30.28-4.09l-73.45,67.63l-3.86,28.93l63.29,8.54l-3.16,23.66
				l30.28,4.09l3.16-23.66l15.69,2.12L425.83,231.65z M346.41,220.93l38.76-35.33l-5.32,39.84L346.41,220.93z"/>
			<path class="st8" d="M394.13,279.74c-0.03,0-0.06,0-0.09-0.01c-0.27-0.05-0.45-0.31-0.4-0.58l23.33-127.93
				c0.05-0.27,0.31-0.44,0.58-0.4c0.27,0.05,0.45,0.31,0.4,0.58l-23.33,127.93C394.58,279.57,394.37,279.74,394.13,279.74z"/>
			<g>
				<path class="st8" d="M414.83,153.37c-0.02,0.45-0.39,0.81-0.85,0.79c-0.45-0.02-0.81-0.39-0.79-0.85s0.39-0.81,0.85-0.79
					C414.49,152.54,414.85,152.92,414.83,153.37z"/>
				<path class="st8" d="M411.5,170.67c-0.02,0.45-0.39,0.81-0.85,0.79s-0.81-0.39-0.79-0.85s0.39-0.81,0.85-0.79
					C411.16,169.84,411.51,170.22,411.5,170.67z"/>
				<path class="st8" d="M408.17,187.97c-0.02,0.45-0.39,0.81-0.85,0.79s-0.81-0.39-0.79-0.85s0.39-0.81,0.85-0.79
					C407.83,187.14,408.18,187.52,408.17,187.97z"/>
				<path class="st8" d="M401.61,205.98c-0.02,0.45-0.39,0.81-0.85,0.79c-0.45-0.02-0.81-0.39-0.79-0.85s0.39-0.81,0.85-0.79
					S401.63,205.53,401.61,205.98z"/>
				<path class="st8" d="M401.5,222.57c-0.02,0.45-0.39,0.81-0.85,0.79c-0.45-0.02-0.81-0.39-0.79-0.85s0.39-0.81,0.85-0.79
					C401.16,221.74,401.52,222.12,401.5,222.57z"/>
				<path class="st8" d="M398.17,239.87c-0.02,0.45-0.39,0.81-0.85,0.79s-0.81-0.39-0.79-0.85c0.02-0.45,0.39-0.81,0.85-0.79
					S398.18,239.42,398.17,239.87z"/>
				<path class="st8" d="M394.84,257.17c-0.02,0.45-0.39,0.81-0.85,0.79c-0.45-0.02-0.81-0.39-0.79-0.85
					c0.02-0.45,0.39-0.81,0.85-0.79C394.5,256.34,394.85,256.72,394.84,257.17z"/>
				<path class="st8" d="M391.5,274.48c-0.02,0.45-0.39,0.81-0.85,0.79s-0.81-0.39-0.79-0.85s0.39-0.81,0.85-0.79
					S391.52,274.02,391.5,274.48z"/>
			</g>
			<path class="st8" d="M400.79,206.45c-0.23,0-0.44-0.16-0.49-0.4c-0.06-0.27,0.11-0.54,0.38-0.59l2.48-0.53
				c0.27-0.05,0.54,0.11,0.59,0.38c0.06,0.27-0.11,0.54-0.38,0.59l-2.48,0.53C400.86,206.45,400.83,206.45,400.79,206.45z"/>
			<g>
				<path class="st8" d="M409.08,197.24c0,0-2.24,5.83-2.99,9.36c-0.75,3.53-0.8,11.42-0.8,11.42"/>
				<path class="st8" d="M405.29,218.53C405.29,218.53,405.29,218.53,405.29,218.53c-0.28,0-0.5-0.23-0.5-0.5
					c0-0.32,0.05-7.98,0.81-11.53c0.75-3.53,2.92-9.2,3.01-9.44c0.1-0.26,0.39-0.38,0.65-0.29c0.26,0.1,0.39,0.39,0.29,0.65
					c-0.02,0.06-2.23,5.83-2.97,9.29c-0.73,3.44-0.79,11.25-0.79,11.32C405.79,218.3,405.57,218.53,405.29,218.53z"/>
			</g>
		</g>
	</g>
</g>
<g id="Character_1_">
	<g>
		<path class="st8" d="M222.45,304.84c1.39-22.4-1.17-63.13,40.94-57.74c45.14,5.78,32.22,58.56,32.22,58.56L222.45,304.84z"/>
		<g>
			<circle class="st10" cx="251.51" cy="273" r="18.38"/>
			<path class="st8" d="M253.93,254.65c-8.7-1.49-18.01,4.93-18.93,11.43l34.51,3.17C268.29,261.85,260.83,255.83,253.93,254.65z"/>
			<path class="st8" d="M265.58,272.54c-0.25,4.8-2.86,8.57-5.85,8.42s-5.2-4.17-4.95-8.98c0.25-4.8,2.86-8.57,5.85-8.42
				C263.6,263.72,265.82,267.74,265.58,272.54z"/>
			<path class="st5" d="M251.51,292.38c-10.68,0-19.38-8.69-19.38-19.38s8.69-19.38,19.38-19.38c10.68,0,19.38,8.69,19.38,19.38
				S262.2,292.38,251.51,292.38z M251.51,255.63c-9.58,0-17.38,7.79-17.38,17.38s7.79,17.38,17.38,17.38
				c9.58,0,17.38-7.79,17.38-17.38S261.09,255.63,251.51,255.63z"/>
		</g>
		<path class="st11" d="M290.49,304.28c-0.04,0-0.08,0-0.12-0.01c-0.27-0.06-0.43-0.33-0.37-0.6c0.03-0.13,3.22-13.69-0.09-27.4
			c-0.07-0.27,0.1-0.54,0.37-0.6c0.26-0.06,0.54,0.1,0.6,0.37c3.37,13.95,0.12,27.73,0.09,27.87
			C290.92,304.12,290.71,304.28,290.49,304.28z"/>
		<path class="st11" d="M287.7,268.76c-0.19,0-0.37-0.11-0.46-0.29c-1.29-2.81-2.88-5.38-4.74-7.66c-0.17-0.21-0.14-0.53,0.07-0.7
			c0.21-0.18,0.53-0.14,0.7,0.07c1.91,2.34,3.56,4.99,4.88,7.87c0.12,0.25,0,0.55-0.25,0.66
			C287.84,268.74,287.77,268.76,287.7,268.76z"/>
		<path class="st8" d="M128.73,409.92c-0.12,0-0.25,0-0.37,0c-2.76-0.08-4.94-2.38-4.86-5.14c0.08-2.76,2.35-4.89,5.14-4.86
			c0.03,0,0.06,0,0.1,0c2.89,0,9.84-3.51,24.38-26.43c0.78-1.23,2.06-2.06,3.5-2.27c1.44-0.21,2.91,0.22,4,1.18
			c17.94,15.64,36.95,25.38,37.14,25.48c2.46,1.25,3.44,4.26,2.19,6.72c-1.25,2.46-4.26,3.45-6.72,2.2
			c-0.76-0.38-17.37-8.88-34.8-23.15C146.25,401.96,137.21,409.92,128.73,409.92z"/>
		<path class="st8" d="M159.67,371.5c-0.14,0-0.28-0.01-0.43-0.03c-1.64-0.23-2.78-1.75-2.55-3.39c0.71-4.98-0.17-23.63-6.47-38.13
			c-0.57-1.32-0.13-2.86,1.06-3.68c13.7-9.33,42.88-10.45,44.11-10.49c1.65-0.04,3.04,1.24,3.1,2.89c0.06,1.66-1.24,3.04-2.89,3.1
			c-0.27,0.01-25.78,0.99-38.89,8.2c5.58,14.44,6.85,32.44,5.92,38.95C162.42,370.42,161.14,371.5,159.67,371.5z"/>
		<path class="st5" d="M164.71,367.62c-2-4.71-10.99-4.17-16.27-0.14c-2.82,2.16-6.64,8.64-7.04,10.99
			c-0.4,2.35,1.23,4.48,4.02,4.24c3.45-0.3,8.18-5.31,8.18-5.31c-3.15,3.09,0.91,5.27,6.98,0.8
			C163.94,375.72,166.94,372.89,164.71,367.62z"/>
		<path class="st8" d="M336.71,306.16c-0.05,0-0.09-0.01-0.14-0.02c-0.27-0.08-0.42-0.35-0.34-0.62c1.33-4.64,2.79-7.47,4.7-9.05
			c-0.29-1-0.26-2.14,0.15-3.26c0.4-1.09,1.18-2.17,2.36-3c-0.58-0.63-0.79-1.45-0.59-2.38c0.23-1.04,0.98-2.17,2.14-3.16
			c-0.45-0.52-0.56-1.09-0.57-1.51c-0.03-2.98,5.51-7.53,11.76-8.38c0.27-0.05,0.53,0.15,0.56,0.43c0.04,0.27-0.15,0.53-0.43,0.56
			c-5.94,0.81-10.92,5.11-10.9,7.38c0,0.37,0.14,0.66,0.36,0.9c2.25-1.57,5.57-2.58,9.28-1.86c3.07,0.59,4.32,1.24,4.17,2.17
			c-0.27,1.75-6.81,2.12-11.19,1.59c-0.99-0.12-1.72-0.35-2.25-0.65c-1.09,0.89-1.79,1.89-1.97,2.73c-0.16,0.75,0.08,1.27,0.5,1.64
			c1.86-0.96,4.47-1.36,7.92-0.59c4.54,1,4.71,1.55,4.81,1.88c0.07,0.24,0.01,0.48-0.16,0.66c-0.96,1.01-7.91,0.53-11.4-0.32
			c-0.45-0.11-0.86-0.26-1.2-0.45c-1.16,0.73-1.9,1.71-2.27,2.71c-0.29,0.8-0.36,1.59-0.23,2.3c0.18-0.11,0.36-0.21,0.55-0.29
			c2.07-0.98,4.57-0.82,7.65,0.5c2.04,0.88,3.03,1.65,3.1,2.44c0.02,0.23-0.02,0.68-0.57,1.04c-1.52,1.01-6.87,0.86-9.65-0.62
			c-0.66-0.35-1.17-0.87-1.54-1.49c-1.63,1.49-2.95,4.17-4.16,8.36C337.12,306.02,336.92,306.16,336.71,306.16z M342.13,296.83
			c0.28,0.51,0.69,0.93,1.22,1.22c2.26,1.2,6.7,1.48,8.36,0.8c0.34-0.14,0.39-0.25,0.39-0.25c0,0-0.05-0.56-2.5-1.61
			c-2.8-1.2-5.04-1.37-6.83-0.52C342.55,296.58,342.34,296.69,342.13,296.83z M345.47,290.26c0.09,0.03,0.17,0.05,0.26,0.07
			c3.53,0.86,8.3,1.01,9.93,0.74c-0.51-0.21-1.54-0.56-3.64-1.02C349.25,289.45,347.08,289.64,345.47,290.26z M346.73,284.64
			c0.45,0.17,0.96,0.27,1.44,0.32c4.98,0.59,9.38-0.11,10.04-0.73c-0.17-0.15-0.84-0.58-3.33-1.06
			C351.59,282.55,348.72,283.38,346.73,284.64z"/>
		<path class="st8" d="M206.53,408.25c0.66-0.21,0.44-0.85-0.3-0.85h-13.54c-25.78-2.73-43.79,0.93-32.44,1.79
			c11.35,0.86-0.8,0.68-9.09,3.82c-8.29,3.14,61.65,3.93,68.02,0C225.04,409.39,197.39,411.18,206.53,408.25z"/>
		<polygon class="st5" points="303.47,412.24 185.67,408.33 180.78,294.11 319.89,297.22 		"/>
		<path class="st8" d="M222.45,410.05c-0.26,0-0.48-0.2-0.5-0.46l-9.44-114.72c-0.02-0.28,0.18-0.52,0.46-0.54
			c0.28-0.02,0.52,0.18,0.54,0.46l9.44,114.72c0.02,0.28-0.18,0.52-0.46,0.54C222.48,410.05,222.47,410.05,222.45,410.05z"/>
		<g>
			<polygon class="st5" points="303.47,412.24 335.13,407.42 345.1,301.21 319.89,297.22 			"/>
			<polygon class="st12" points="303.47,412.24 335.13,407.42 345.1,301.21 319.89,297.22 			"/>
		</g>
		<path class="st8" d="M195.73,386.32l-2.9-67.86c-0.3-7.08,5.44-12.95,12.53-12.79l88.06,1.97c7.35,0.16,12.91,6.72,11.87,14
			l-9.76,68.39c-0.88,6.2-6.29,10.74-12.55,10.53l-75.39-2.5C201.17,397.84,196.01,392.73,195.73,386.32z"/>
		<g>
			<path class="st10" d="M205.25,326.49l13.62,0.43l-0.11,3.51l-8.53-0.27l-0.08,2.61l7.91,0.25l-0.11,3.36l-7.91-0.25l-0.1,3.24
				l8.78,0.28l-0.12,3.73l-13.87-0.44L205.25,326.49z"/>
			<path class="st10" d="M221.4,343.47l0.52-16.45l8.47,0.27c1.57,0.05,2.77,0.22,3.59,0.52c0.82,0.3,1.48,0.82,1.96,1.56
				c0.49,0.75,0.71,1.64,0.68,2.69c-0.03,0.91-0.25,1.69-0.66,2.34c-0.41,0.65-0.96,1.17-1.66,1.56c-0.44,0.25-1.04,0.45-1.81,0.59
				c0.6,0.22,1.03,0.44,1.3,0.65c0.18,0.14,0.44,0.44,0.79,0.89c0.34,0.45,0.57,0.8,0.68,1.04l2.31,4.85l-5.74-0.18l-2.56-5.11
				c-0.32-0.66-0.62-1.09-0.88-1.3c-0.36-0.27-0.77-0.41-1.23-0.42l-0.45-0.01l-0.21,6.68L221.4,343.47z M226.82,333.85l2.14,0.07
				c0.23,0.01,0.68-0.05,1.35-0.18c0.34-0.06,0.62-0.22,0.84-0.49c0.22-0.27,0.34-0.58,0.35-0.94c0.02-0.53-0.14-0.94-0.47-1.24
				c-0.33-0.3-0.96-0.46-1.88-0.49l-2.23-0.07L226.82,333.85z"/>
			<path class="st10" d="M239.28,344.04l0.52-16.45l8.47,0.27c1.57,0.05,2.77,0.22,3.59,0.52c0.82,0.3,1.48,0.82,1.96,1.56
				c0.49,0.75,0.71,1.64,0.68,2.69c-0.03,0.91-0.25,1.69-0.66,2.34c-0.41,0.65-0.96,1.17-1.66,1.56c-0.44,0.25-1.04,0.45-1.81,0.59
				c0.6,0.22,1.03,0.44,1.3,0.65c0.18,0.14,0.44,0.44,0.79,0.89c0.34,0.45,0.57,0.8,0.68,1.04l2.31,4.85l-5.74-0.18l-2.56-5.11
				c-0.32-0.66-0.62-1.09-0.88-1.3c-0.36-0.27-0.77-0.41-1.23-0.42l-0.45-0.01l-0.21,6.68L239.28,344.04z M244.69,334.42l2.14,0.07
				c0.23,0.01,0.68-0.05,1.35-0.18c0.34-0.06,0.62-0.22,0.84-0.49c0.22-0.27,0.34-0.58,0.35-0.94c0.02-0.53-0.14-0.94-0.47-1.24
				c-0.33-0.3-0.96-0.46-1.88-0.49l-2.23-0.07L244.69,334.42z"/>
			<path class="st10" d="M256.32,336.36c0.09-2.69,0.9-4.75,2.44-6.2c1.54-1.45,3.65-2.13,6.32-2.05c2.74,0.09,4.82,0.89,6.26,2.41
				c1.43,1.52,2.11,3.6,2.03,6.25c-0.06,1.92-0.44,3.49-1.12,4.7c-0.69,1.21-1.65,2.14-2.9,2.78c-1.25,0.65-2.78,0.94-4.61,0.88
				c-1.86-0.06-3.38-0.4-4.58-1.03c-1.2-0.63-2.15-1.6-2.87-2.9C256.58,339.89,256.25,338.28,256.32,336.36z M261.4,336.54
				c-0.05,1.66,0.22,2.86,0.81,3.61c0.59,0.75,1.42,1.13,2.48,1.17c1.09,0.03,1.95-0.29,2.57-0.99c0.62-0.69,0.96-1.96,1.02-3.8
				c0.05-1.55-0.23-2.69-0.83-3.42c-0.6-0.73-1.44-1.12-2.51-1.15c-1.03-0.03-1.86,0.3-2.5,1.01
				C261.8,333.68,261.45,334.87,261.4,336.54z"/>
			<path class="st10" d="M275.91,345.21l0.52-16.45l8.47,0.27c1.57,0.05,2.77,0.22,3.59,0.52c0.82,0.3,1.48,0.82,1.96,1.56
				c0.49,0.75,0.71,1.64,0.68,2.69c-0.03,0.91-0.25,1.69-0.66,2.34c-0.41,0.65-0.96,1.17-1.66,1.56c-0.44,0.25-1.04,0.45-1.81,0.59
				c0.6,0.22,1.03,0.44,1.3,0.65c0.18,0.14,0.44,0.44,0.79,0.89c0.34,0.45,0.57,0.8,0.68,1.04l2.31,4.85l-5.74-0.18l-2.56-5.11
				c-0.32-0.66-0.62-1.09-0.88-1.3c-0.36-0.27-0.77-0.41-1.23-0.42l-0.45-0.01l-0.21,6.68L275.91,345.21z M281.32,335.58l2.14,0.07
				c0.23,0.01,0.68-0.05,1.35-0.18c0.34-0.06,0.62-0.22,0.84-0.49c0.22-0.27,0.34-0.58,0.35-0.94c0.02-0.53-0.14-0.94-0.47-1.24
				c-0.33-0.3-0.96-0.46-1.88-0.49l-2.23-0.07L281.32,335.58z"/>
		</g>
		<path class="st10" d="M284,373.16c-0.36,0-0.71-0.14-0.97-0.43l-8.56-9.37l-9.24,8.44c-0.54,0.49-1.37,0.45-1.85-0.08l-8.56-9.37
			l-9.24,8.44c-0.54,0.49-1.37,0.45-1.85-0.08l-8.56-9.37l-9.24,8.44c-0.26,0.24-0.6,0.36-0.94,0.34c-0.35-0.02-0.68-0.17-0.91-0.43
			l-8.56-9.37l-9.24,8.44c-0.53,0.49-1.37,0.45-1.85-0.08c-0.49-0.54-0.45-1.37,0.08-1.85l10.21-9.33c0.53-0.49,1.37-0.45,1.85,0.08
			l8.56,9.37l9.24-8.44c0.26-0.24,0.6-0.36,0.94-0.34c0.35,0.02,0.68,0.17,0.91,0.43l8.56,9.37l9.24-8.44
			c0.53-0.49,1.37-0.45,1.85,0.08l8.56,9.37l9.24-8.44c0.53-0.49,1.36-0.45,1.85,0.08l9.45,10.34c0.49,0.54,0.45,1.37-0.08,1.85
			C284.63,373.04,284.31,373.16,284,373.16z"/>
		<g>
			<polygon class="st5" points="125.75,414.67 119.49,411.68 113.91,384.52 116.94,381.18 			"/>
			<g>
				<polygon class="st5" points="125.75,414.67 134.05,409.82 126.94,387.43 116.94,381.18 				"/>
				<polygon class="st12" points="125.75,414.67 134.05,409.82 126.94,387.43 116.94,381.18 				"/>
			</g>
		</g>
		<path class="st8" d="M261.95,419.61c-0.24,0-0.47,0-0.69-0.01c-2.76-0.08-4.94-2.38-4.86-5.14c0.08-2.76,2.36-4.93,5.14-4.86
			c7.7,0.25,24.01-4.48,33.32-13.52c0.58-0.56,1.28-0.97,2.05-1.2c15.79-4.74,21.66,4.83,21.91,5.24l-8.61,5.09
			c0,0,0.03,0.07,0.12,0.18c-0.1-0.13-2.33-3.04-9.45-1.24C289.17,414.82,271.23,419.61,261.95,419.61z"/>
		<g>
			<polygon class="st5" points="261.39,426.25 243.18,425.1 241.75,391.53 266.22,392.44 			"/>
			<g>
				<polygon class="st5" points="261.39,426.25 265.65,422.02 268.29,401.08 266.22,392.44 				"/>
				<polygon class="st12" points="261.39,426.25 265.65,422.02 268.29,401.08 266.22,392.44 				"/>
			</g>
		</g>
		<path class="st8" d="M366.91,413.54c-0.63,0-1.27-0.2-1.81-0.61c-10.39-7.9-24.45-21.93-29.84-35.46c-0.08-0.2-0.14-0.4-0.17-0.61
			c-2.63-15.63-5.14-48.54-5.25-49.93c-0.13-1.65,1.11-3.09,2.76-3.22c1.65-0.12,3.09,1.11,3.22,2.76
			c0.03,0.34,2.56,33.57,5.13,49.07c5.38,13.16,19.96,26.67,27.78,32.61c1.32,1,1.58,2.88,0.57,4.2
			C368.71,413.13,367.82,413.54,366.91,413.54z"/>
		<path class="st8" d="M380.78,415.05c-2.32,0-4.95-1.05-7.81-3.13c-1.34-0.97-1.64-2.85-0.67-4.19c0.97-1.34,2.85-1.64,4.19-0.67
			c2.48,1.79,3.83,1.99,4.3,1.99c1.66,0,3,1.34,3,3C383.78,413.71,382.43,415.05,380.78,415.05z"/>
		<path class="st5" d="M373.8,411.84c3.21-9.54,16.37-7.65,20.9-6.24c4.53,1.42,8.61,3.2,11.07,4.8c2.45,1.6,2.49,4.29-0.78,5.82
			c-4.04,1.89-14.16,0.21-14.16,0.21c5.24,2.29-0.01,5.97-9.21,2.36C378.64,417.62,372.67,415.34,373.8,411.84z"/>
		<path class="st8" d="M341.86,331.04c-1.19,8.1-7.9,14.08-13.36,13.27c-5.46-0.8-5.68-8.04-4.49-16.14c1.19-8.1,3.35-14,8.81-13.2
			C338.27,315.77,343.05,322.93,341.86,331.04z"/>
		<circle class="st8" cx="209.88" cy="297.88" r="0.82"/>
		<path class="st8" d="M218.21,303.78c0,0.45-0.37,0.82-0.82,0.82s-0.82-0.37-0.82-0.82c0-0.45,0.37-0.82,0.82-0.82
			S218.21,303.33,218.21,303.78z"/>
		<path class="st8" d="M219.13,400.68c0,0.45-0.37,0.82-0.82,0.82c-0.45,0-0.82-0.37-0.82-0.82c0-0.45,0.37-0.82,0.82-0.82
			C218.76,399.86,219.13,400.23,219.13,400.68z"/>
		<path class="st8" d="M226.64,406.59c0,0.45-0.37,0.82-0.82,0.82c-0.45,0-0.82-0.37-0.82-0.82c0-0.45,0.37-0.82,0.82-0.82
			C226.27,405.77,226.64,406.13,226.64,406.59z"/>
	</g>
</g>
<g id="Robot_Parts">
	<g>
		<path class="st8" d="M82.51,416.42c-2.38,0-5.6-1.44-7.33-3.95c-0.16-0.23-0.1-0.54,0.13-0.7c0.23-0.16,0.54-0.1,0.7,0.13
			c1.87,2.69,5.98,4.13,7.81,3.28c0.19-0.09,0.35-0.2,0.47-0.34c-1.63-0.75-3.12-2.23-3.53-4.48c-0.23-1.27-0.41-2.98,0.64-3.22
			c1.43-0.32,3.31,3.15,4.03,5.78c0.13,0.49,0.18,0.94,0.13,1.34c0.63,0.17,1.25,0.22,1.79,0.14c0.43-0.06,1.05-0.24,1.37-0.75
			c-1.21-0.82-2.03-2.27-2.3-4.19c-0.39-2.73-0.1-3.21,0.21-3.44c0.2-0.15,0.45-0.18,0.69-0.08c1.07,0.46,2.37,4.33,2.61,6.53
			c0.03,0.24,0.03,0.47,0,0.69c0.41,0.16,0.86,0.25,1.35,0.26c0.87,0.05,1.72-0.23,2.41-0.63c-0.14-0.09-0.28-0.19-0.4-0.29
			c-1.04-0.89-1.46-2.3-1.28-4.33c0.14-1.57,0.49-2.42,1.12-2.69c0.22-0.1,0.67-0.19,1.21,0.24c1.08,0.86,2.09,3.6,1.73,5.56
			c-0.08,0.41-0.25,0.79-0.5,1.15c1.83,0.32,4.42-0.2,6.64-0.75c0.27-0.07,0.54,0.1,0.61,0.37c0.07,0.27-0.1,0.54-0.37,0.61
			c-2.71,0.67-5.63,1.21-7.69,0.62c-0.92,0.73-2.21,1.17-3.5,1.16c-0.59-0.01-1.14-0.12-1.64-0.31c-0.39,0.67-1.13,1.13-2.12,1.27
			c-0.66,0.1-1.45,0.04-2.24-0.19c-0.23,0.38-0.56,0.68-1.01,0.89C83.75,416.31,83.16,416.42,82.51,416.42z M81.65,408.14
			c-0.06,0.15-0.16,0.66,0.08,2.04c0.33,1.84,1.52,3.06,2.84,3.71c-0.01-0.21-0.05-0.45-0.12-0.71
			C83.67,410.33,82.17,408.36,81.65,408.14z M87.22,407.27c-0.01,0.38,0.03,1.01,0.18,2.06c0.2,1.43,0.73,2.52,1.52,3.22
			C88.68,410.54,87.79,408.22,87.22,407.27z M93.51,406.4C93.51,406.4,93.51,406.4,93.51,406.4c0,0-0.38,0.19-0.52,1.86
			c-0.15,1.68,0.16,2.82,0.93,3.48c0.18,0.15,0.38,0.28,0.6,0.38c0.28-0.31,0.48-0.66,0.54-1.03c0.27-1.45-0.42-3.57-1.2-4.43
			C93.67,406.44,93.54,406.4,93.51,406.4z"/>
		<g>
			<polygon class="st8" points="228.87,423.98 231.58,419.28 228.87,414.58 225.97,414.58 227.61,419.28 225.97,423.98 			"/>
			<path class="st8" d="M226.16,421.73c-1.35,0-2.45-1.1-2.45-2.45c0-1.35,1.1-2.44,2.45-2.44l-4.61-0.92l-1.22,3.72l2.06,3.14
				L226.16,421.73z"/>
			<path class="st5" d="M226.56,414.58h-5.43l-2.71,4.7l2.71,4.7h5.43l2.71-4.7L226.56,414.58z M223.85,421.73
				c-1.35,0-2.45-1.1-2.45-2.45c0-1.35,1.1-2.44,2.45-2.44c1.35,0,2.44,1.09,2.44,2.44C226.29,420.63,225.2,421.73,223.85,421.73z"
				/>
		</g>
		<g>
			<polygon class="st5" points="417.89,414.27 415.88,410.77 417.89,407.28 420.04,407.28 418.83,410.77 420.04,414.27 			"/>
			<path class="st5" d="M419.9,412.59c1,0,1.82-0.82,1.82-1.82c0-1-0.82-1.81-1.82-1.81l3.42-0.68l0.91,2.76l-1.53,2.33
				L419.9,412.59z"/>
			<path class="st8" d="M419.61,407.28h4.03l2.01,3.49l-2.01,3.49h-4.03l-2.01-3.49L419.61,407.28z M421.62,412.59
				c1,0,1.82-0.82,1.82-1.82c0-1-0.82-1.81-1.82-1.81c-1,0-1.81,0.81-1.81,1.81C419.81,411.78,420.62,412.59,421.62,412.59z"/>
		</g>
		<g>
			<path class="st8" d="M342.95,418.9h4.52c1.18,0,2.14-0.96,2.14-2.14l0,0c0-1.18-0.96-2.14-2.14-2.14h-4.52
				c-1.18,0-2.14,0.96-2.14,2.14l0,0C340.81,417.94,341.77,418.9,342.95,418.9z"/>
			<path class="st5" d="M335.73,414.86c1.12-2.37,3.82-3.44,6.04-2.39c2.22,1.05,3.12,3.81,2,6.18s-3.82,3.44-6.04,2.39
				C335.51,420,334.61,417.23,335.73,414.86z"/>
			
				<rect x="339.07" y="411.71" transform="matrix(-0.9045 -0.4265 0.4265 -0.9045 469.3328 938.6096)" class="st8" width="1.37" height="10.1"/>
		</g>
	</g>
</g>
</svg>
