<?xml version="1.0" encoding="utf-8"?>
<!-- Generator: Adobe Illustrator 23.0.2, SVG Export Plug-In . SVG Version: 6.00 Build 0)  -->
<svg version="1.1" xmlns="http://www.w3.org/2000/svg" xmlns:xlink="http://www.w3.org/1999/xlink" x="0px" y="0px"
	 viewBox="0 0 500 500" style="enable-background:new 0 0 500 500;" xml:space="preserve">
<style type="text/css">
	.st0{fill:#EBEBEB;}
	.st1{fill:#F5F5F5;}
	.st2{fill:#E0E0E0;}
	.st3{fill:#FAFAFA;}
	.st4{fill:#FFFFFF;}
	.st5{display:none;}
	.st6{display:inline;}
	.st7{fill:#263238;}
	.st8{fill:#B37F6D;}
	.st9{fill:#815144;}
	.st10{fill:#455A64;}
	.st11{fill:#FF725E;}
	.st12{opacity:0.3;}
	.st13{opacity:0.6;}
	.st14{opacity:0.1;}
</style>
<g id="Background_Complete">
	<g>
		<g>
			<g>
				<g>
					<g>
						<path class="st0" d="M432.71,104.17c0.35-2.52-3.21-4.59-5.88-4.81c-1.27-0.1-2.6,0.09-3.8-0.33
							c-2.61-0.91-3.66-4.29-6.21-5.36c-1.91-0.8-4.1-0.09-5.95,0.84c-1.85,0.93-3.68,2.1-5.74,2.23c-1.8,0.11-3.75-0.55-5.32,0.33
							c-1.17,0.65-1.78,2-2.86,2.8c-1.06,0.78-2.43,0.94-3.74,1.02c-1.31,0.07-2.67,0.08-3.86,0.63c-1.19,0.55-2.18,1.81-1.93,3.1
							L432.71,104.17z"/>
					</g>
				</g>
			</g>
		</g>
		<g>
			<g>
				<g>
					<g>
						<path class="st0" d="M88.5,180.18c0.54-3.94-5.02-7.19-9.2-7.52c-1.99-0.16-4.06,0.14-5.95-0.51
							c-4.09-1.43-5.73-6.71-9.72-8.4c-2.99-1.26-6.42-0.14-9.32,1.32c-2.89,1.46-5.75,3.29-8.99,3.5
							c-2.81,0.18-5.87-0.86-8.33,0.51c-1.83,1.02-2.79,3.14-4.48,4.38c-1.65,1.22-3.81,1.48-5.86,1.59
							c-2.05,0.11-4.18,0.13-6.04,0.99c-1.87,0.86-3.41,2.83-3.03,4.85L88.5,180.18z"/>
					</g>
				</g>
			</g>
		</g>
		<g>
			<g>
				<g>
					<g>
						<path class="st1" d="M482.44,160.86c0.6-4.33-5.52-7.89-10.11-8.26c-2.19-0.18-4.46,0.16-6.54-0.56
							c-4.5-1.57-6.29-7.37-10.68-9.22c-3.28-1.38-7.05-0.15-10.23,1.45c-3.18,1.6-6.32,3.61-9.87,3.84
							c-3.09,0.2-6.44-0.95-9.15,0.56c-2.01,1.12-3.07,3.45-4.93,4.81c-1.82,1.34-4.19,1.62-6.44,1.75s-4.59,0.15-6.64,1.08
							c-2.05,0.94-3.75,3.11-3.32,5.33L482.44,160.86z"/>
					</g>
				</g>
			</g>
		</g>
		<g>
			<g>
				<g>
					<g>
						<g>
							<g>
								<path class="st1" d="M402.38,347.52c-10.59-2.77-19.85-9.73-25-18.81c-5.15-9.08-6.12-20.15-2.62-29.89
									c2.73-7.6,7.99-14.29,10.25-22.03c2.56-8.78,1.04-18.1-0.55-27.08c-1.58-8.98-3.19-18.27-0.79-27.09
									c2.4-8.82,9.96-17.1,19.68-17.73c9.02-0.58,17.34,5.66,21.11,13.33c3.76,7.68,3.79,16.48,2.91,24.88
									c-0.88,8.4-2.59,16.79-2.05,25.22c1.09,17.06,11.32,33.12,10.12,50.17c-0.63,8.88-4.3,14.56-10.6,21.24
									C419.4,345.5,410.37,349.29,402.38,347.52"/>
							</g>
						</g>
					</g>
					<g>
						<g>
							<g>
								<path class="st2" d="M405.57,432.05c-0.09,0-0.17-37.79-0.17-84.4c0-46.62,0.08-84.41,0.17-84.41
									c0.09,0,0.17,37.78,0.17,84.41C405.74,394.26,405.66,432.05,405.57,432.05z"/>
							</g>
						</g>
					</g>
					<g>
						<g>
							<g>
								<path class="st2" d="M405.08,318.03c-0.03,0.03-0.63-0.49-1.56-1.37c-0.93-0.88-2.19-2.12-3.52-3.54
									c-1.33-1.42-2.55-2.68-3.44-3.59c-0.88-0.92-1.42-1.5-1.38-1.53c0.03-0.03,0.63,0.49,1.56,1.37
									c0.93,0.88,2.19,2.12,3.52,3.54c1.33,1.42,2.55,2.68,3.44,3.59C404.58,317.42,405.12,318,405.08,318.03z"/>
							</g>
						</g>
					</g>
					<g>
						<g>
							<rect x="377.82" y="425.04" class="st2" width="56.45" height="6.9"/>
						</g>
					</g>
				</g>
				<g>
					<g>
						<g>
							<g>
								<path class="st2" d="M406.1,282.67c-0.04-0.09,1.51-0.18,3.45-1.44c0.96-0.62,1.97-1.55,2.77-2.78
									c0.8-1.22,1.39-2.76,1.5-4.41c0-0.05,0.01-0.1,0.01-0.15l0.2,0.17c-1.73,0.26-3.14,1.24-4.16,2.29
									c-1.04,1.04-1.75,2.17-2.32,3.11c-0.56,0.95-0.95,1.75-1.21,2.31c-0.26,0.56-0.41,0.86-0.43,0.86
									c-0.02-0.01,0.08-0.33,0.31-0.9c0.23-0.57,0.59-1.39,1.12-2.37c0.54-0.97,1.24-2.12,2.3-3.2c1.02-1.08,2.5-2.13,4.34-2.4
									l0.21-0.03l-0.02,0.2c0,0.05-0.01,0.1-0.01,0.16c-0.12,1.71-0.73,3.29-1.58,4.54c-0.84,1.26-1.89,2.2-2.9,2.81
									c-1,0.62-1.92,0.94-2.57,1.09c-0.32,0.09-0.58,0.11-0.75,0.14C406.19,282.67,406.1,282.68,406.1,282.67z"/>
							</g>
						</g>
					</g>
					<g>
						<g>
							<g>
								<path class="st2" d="M406.1,282.67c-0.07-0.06,0.99-1.37,2.36-2.94c1.38-1.57,2.55-2.79,2.63-2.74
									c0.07,0.05-0.98,1.37-2.36,2.94C407.35,281.5,406.17,282.73,406.1,282.67z"/>
							</g>
						</g>
					</g>
				</g>
			</g>
		</g>
		<g>
			<g>
				<path class="st2" d="M443.48,431.8c0,0.13-93.79,0.24-209.46,0.24c-115.71,0-209.48-0.11-209.48-0.24
					c0-0.13,93.77-0.24,209.48-0.24C349.69,431.56,443.48,431.67,443.48,431.8z"/>
			</g>
		</g>
		<g>
			<g>
				<rect x="99.52" y="134.11" class="st1" width="79.17" height="250.92"/>
			</g>
			<g>
				<rect x="139.1" y="134.11" class="st0" width="39.59" height="250.23"/>
			</g>
			<g>
				<rect x="108.56" y="109.48" class="st1" width="27.96" height="24.63"/>
			</g>
			<g>
				<rect x="129.85" y="109.48" class="st0" width="6.66" height="24.63"/>
			</g>
			<g>
				<polyline class="st2" points="92.92,134.11 92.92,132.68 181.01,132.68 181.01,134.11 				"/>
			</g>
			<g>
				<rect x="115.14" y="144.86" class="st3" width="6.7" height="14.13"/>
			</g>
			<g>
				<g>
					<path class="st2" d="M139.1,164.53c0,0.15-8.86,0.27-19.79,0.27c-10.93,0-19.79-0.12-19.79-0.27c0-0.15,8.86-0.27,19.79-0.27
						C130.24,164.26,139.1,164.38,139.1,164.53z"/>
				</g>
			</g>
			<g>
				<g>
					<rect x="155.08" y="144.86" class="st2" width="6.7" height="14.13"/>
				</g>
				<g>
					<g>
						<path class="st2" d="M179.03,164.53c0,0.15-8.86,0.27-19.79,0.27c-10.93,0-19.79-0.12-19.79-0.27c0-0.15,8.86-0.27,19.79-0.27
							C170.17,164.26,179.03,164.38,179.03,164.53z"/>
					</g>
				</g>
			</g>
			<g>
				<g>
					<rect x="155.08" y="172.91" class="st2" width="6.7" height="14.13"/>
				</g>
				<g>
					<g>
						<path class="st2" d="M179.03,192.59c0,0.15-8.86,0.27-19.79,0.27c-10.93,0-19.79-0.12-19.79-0.27c0-0.15,8.86-0.27,19.79-0.27
							C170.17,192.32,179.03,192.44,179.03,192.59z"/>
					</g>
				</g>
			</g>
			<g>
				<g>
					<rect x="155.08" y="201.82" class="st2" width="6.7" height="14.13"/>
				</g>
				<g>
					<g>
						<path class="st2" d="M179.03,221.49c0,0.15-8.86,0.27-19.79,0.27c-10.93,0-19.79-0.12-19.79-0.27c0-0.15,8.86-0.27,19.79-0.27
							C170.17,221.22,179.03,221.34,179.03,221.49z"/>
					</g>
				</g>
			</g>
			<g>
				<g>
					<rect x="155.08" y="230.72" class="st2" width="6.7" height="14.13"/>
				</g>
				<g>
					<g>
						<path class="st2" d="M179.03,250.39c0,0.15-8.86,0.27-19.79,0.27c-10.93,0-19.79-0.12-19.79-0.27c0-0.15,8.86-0.27,19.79-0.27
							C170.17,250.13,179.03,250.25,179.03,250.39z"/>
					</g>
				</g>
			</g>
			<g>
				<g>
					<rect x="155.08" y="258.79" class="st2" width="6.7" height="14.13"/>
				</g>
				<g>
					<g>
						<path class="st2" d="M179.03,278.47c0,0.15-8.86,0.27-19.79,0.27c-10.93,0-19.79-0.12-19.79-0.27c0-0.15,8.86-0.27,19.79-0.27
							C170.17,278.2,179.03,278.32,179.03,278.47z"/>
					</g>
				</g>
			</g>
			<g>
				<g>
					<rect x="155.08" y="286.98" class="st2" width="6.7" height="14.13"/>
				</g>
				<g>
					<rect x="155.08" y="315.54" class="st2" width="6.7" height="14.13"/>
				</g>
				<g>
					<g>
						<path class="st2" d="M179.03,306.66c0,0.15-8.86,0.27-19.79,0.27c-10.93,0-19.79-0.12-19.79-0.27c0-0.15,8.86-0.27,19.79-0.27
							C170.17,306.39,179.03,306.51,179.03,306.66z"/>
					</g>
				</g>
			</g>
			<g>
				<rect x="115.14" y="173.34" class="st3" width="6.7" height="14.13"/>
			</g>
			<g>
				<g>
					<path class="st2" d="M139.1,193.02c0,0.15-8.86,0.27-19.79,0.27c-10.93,0-19.79-0.12-19.79-0.27c0-0.15,8.86-0.27,19.79-0.27
						C130.24,192.75,139.1,192.87,139.1,193.02z"/>
				</g>
			</g>
			<g>
				<rect x="115.14" y="201.82" class="st3" width="6.7" height="14.13"/>
			</g>
			<g>
				<g>
					<path class="st2" d="M139.1,221.5c0,0.15-8.86,0.27-19.79,0.27c-10.93,0-19.79-0.12-19.79-0.27c0-0.15,8.86-0.27,19.79-0.27
						C130.24,221.23,139.1,221.35,139.1,221.5z"/>
				</g>
			</g>
			<g>
				<rect x="115.14" y="230.31" class="st3" width="6.7" height="14.13"/>
			</g>
			<g>
				<g>
					<path class="st2" d="M139.1,249.99c0,0.15-8.86,0.27-19.79,0.27c-10.93,0-19.79-0.12-19.79-0.27c0-0.15,8.86-0.27,19.79-0.27
						C130.24,249.72,139.1,249.84,139.1,249.99z"/>
				</g>
			</g>
			<g>
				<rect x="115.14" y="258.79" class="st3" width="6.7" height="14.13"/>
			</g>
			<g>
				<g>
					<path class="st2" d="M139.1,278.47c0,0.15-8.86,0.27-19.79,0.27c-10.93,0-19.79-0.12-19.79-0.27c0-0.15,8.86-0.27,19.79-0.27
						C130.24,278.2,139.1,278.32,139.1,278.47z"/>
				</g>
			</g>
			<g>
				<rect x="115.14" y="287.28" class="st3" width="6.7" height="14.13"/>
			</g>
			<g>
				<g>
					<path class="st2" d="M139.1,306.95c0,0.15-8.86,0.27-19.79,0.27c-10.93,0-19.79-0.12-19.79-0.27c0-0.15,8.86-0.27,19.79-0.27
						C130.24,306.69,139.1,306.81,139.1,306.95z"/>
				</g>
			</g>
			<g>
				<g>
					<rect x="115.14" y="315.76" class="st3" width="6.7" height="14.13"/>
				</g>
			</g>
		</g>
		<g>
			<g>
				<g>
					<rect x="163.76" y="279.6" class="st0" width="115.59" height="152.45"/>
				</g>
				<g>
					<rect x="225.15" y="279.6" class="st2" width="54.2" height="152.45"/>
				</g>
			</g>
			<g>
				<g>
					<rect x="188" y="300.24" class="st1" width="10.39" height="25.25"/>
				</g>
				<g>
					<rect x="188" y="399.06" class="st1" width="10.39" height="25.25"/>
				</g>
				<g>
					<g>
						<path class="st1" d="M225.15,335.39c0,0.28-13.74,0.51-30.69,0.51c-16.96,0-30.7-0.23-30.7-0.51c0-0.28,13.74-0.51,30.7-0.51
							C211.41,334.88,225.15,335.11,225.15,335.39z"/>
					</g>
				</g>
			</g>
			<g>
				<g>
					<rect x="188" y="350.02" class="st1" width="10.39" height="25.25"/>
				</g>
				<g>
					<g>
						<path class="st1" d="M225.15,385.18c0,0.28-13.74,0.51-30.69,0.51c-16.96,0-30.7-0.23-30.7-0.51c0-0.28,13.74-0.51,30.7-0.51
							C211.41,384.67,225.15,384.9,225.15,385.18z"/>
					</g>
				</g>
			</g>
			<g>
				<rect x="236.66" y="300.24" class="st1" width="10.39" height="25.25"/>
			</g>
			<g>
				<rect x="259.21" y="300.24" class="st1" width="10.39" height="25.25"/>
			</g>
			<g>
				<rect x="236.66" y="348.15" class="st1" width="10.39" height="25.25"/>
			</g>
			<g>
				<rect x="259.21" y="348.15" class="st1" width="10.39" height="25.25"/>
			</g>
			<g>
				<rect x="236.66" y="396.06" class="st1" width="10.39" height="25.25"/>
			</g>
			<g>
				<rect x="259.21" y="396.06" class="st1" width="10.39" height="25.25"/>
			</g>
			<g>
				<rect x="155.08" y="274.29" class="st2" width="132.96" height="5.5"/>
			</g>
			<g>
				<g>
					<path class="st0" d="M280.16,280.3c0,0.28-25.83,0.51-57.7,0.51c-31.87,0-57.7-0.23-57.7-0.51c0-0.28,25.83-0.51,57.7-0.51
						C254.32,279.79,280.16,280.02,280.16,280.3z"/>
				</g>
			</g>
		</g>
		<g>
			<g>
				<g>
					<polygon class="st0" points="166.63,431.65 50.12,431.65 49.61,247.52 166.12,247.52 					"/>
				</g>
				<g>
					<rect x="107.87" y="247.52" class="st2" width="58.25" height="184.13"/>
				</g>
				<g>
					<rect x="62.92" y="211.27" class="st0" width="41.14" height="36.25"/>
				</g>
				<g>
					<rect x="94.25" y="211.27" class="st2" width="9.81" height="36.25"/>
				</g>
				<g>
					<rect x="39.91" y="245.41" class="st2" width="129.63" height="2.11"/>
				</g>
				<g>
					<rect x="72.61" y="263.33" class="st4" width="9.86" height="20.79"/>
				</g>
				<g>
					<g>
						<path class="st2" d="M107.87,292.29c0,0.22-13.04,0.4-29.13,0.4c-16.09,0-29.13-0.18-29.13-0.4c0-0.22,13.04-0.4,29.13-0.4
							C94.83,291.89,107.87,292.07,107.87,292.29z"/>
					</g>
				</g>
				<g>
					<g>
						<rect x="131.37" y="263.33" class="st1" width="9.86" height="20.79"/>
					</g>
					<g>
						<g>
							<path class="st0" d="M166.63,292.29c0,0.22-13.04,0.4-29.13,0.4c-16.09,0-29.13-0.18-29.13-0.4c0-0.22,13.04-0.4,29.13-0.4
								C153.59,291.89,166.63,292.07,166.63,292.29z"/>
						</g>
					</g>
				</g>
				<g>
					<g>
						<rect x="131.37" y="304.62" class="st1" width="9.86" height="20.79"/>
					</g>
					<g>
						<g>
							<path class="st0" d="M166.63,333.57c0,0.22-13.04,0.4-29.13,0.4c-16.09,0-29.13-0.18-29.13-0.4c0-0.22,13.04-0.4,29.13-0.4
								C153.59,333.17,166.63,333.35,166.63,333.57z"/>
						</g>
					</g>
				</g>
				<g>
					<g>
						<rect x="131.37" y="347.15" class="st1" width="9.86" height="20.79"/>
					</g>
					<g>
						<g>
							<path class="st0" d="M166.63,376.1c0,0.22-13.04,0.4-29.13,0.4c-16.09,0-29.13-0.18-29.13-0.4c0-0.22,13.04-0.4,29.13-0.4
								C153.59,375.71,166.63,375.88,166.63,376.1z"/>
						</g>
					</g>
				</g>
				<g>
					<g>
						<rect x="131.37" y="389.68" class="st1" width="9.86" height="20.79"/>
					</g>
					<g>
						<g>
							<path class="st0" d="M166.63,418.63c0,0.22-13.04,0.4-29.13,0.4c-16.09,0-29.13-0.18-29.13-0.4c0-0.22,13.04-0.4,29.13-0.4
								C153.59,418.24,166.63,418.41,166.63,418.63z"/>
						</g>
					</g>
				</g>
				<g>
					<rect x="72.61" y="305.25" class="st4" width="9.86" height="20.79"/>
				</g>
				<g>
					<g>
						<path class="st2" d="M107.87,334.2c0,0.22-13.04,0.4-29.13,0.4c-16.09,0-29.13-0.18-29.13-0.4c0-0.22,13.04-0.4,29.13-0.4
							C94.83,333.8,107.87,333.98,107.87,334.2z"/>
					</g>
				</g>
				<g>
					<rect x="72.61" y="347.16" class="st4" width="9.86" height="20.79"/>
				</g>
				<g>
					<g>
						<path class="st2" d="M107.87,376.12c0,0.22-13.04,0.4-29.13,0.4c-16.09,0-29.13-0.18-29.13-0.4s13.04-0.4,29.13-0.4
							C94.83,375.72,107.87,375.9,107.87,376.12z"/>
					</g>
				</g>
				<g>
					<rect x="72.61" y="389.08" class="st4" width="9.86" height="20.79"/>
				</g>
				<g>
					<g>
						<path class="st2" d="M107.87,418.03c0,0.22-13.04,0.4-29.13,0.4c-16.09,0-29.13-0.18-29.13-0.4c0-0.22,13.04-0.4,29.13-0.4
							C94.83,417.64,107.87,417.81,107.87,418.03z"/>
					</g>
				</g>
			</g>
		</g>
	</g>
</g>
<g id="Background_Simple" class="st5">
	<g class="st6">
		<path class="st0" d="M434.31,136.76l-2.27-3.74c-19.11-31.49-53.66-50.47-90.09-48.17c-4.68,0.3-9.35,0.93-13.95,1.91
			c-33.12,7.09-61.94,32.14-73.88,64.21c-7.03,18.86-8.99,40.59-22.32,55.56c-17.35,19.49-46.81,20.1-72.71,19.29
			c-25.9-0.81-55.37-0.12-72.64,19.45c-10.81,12.25-14.25,29.68-13.38,46.09c2.31,43.44,32.58,82.29,71.08,101.6
			c38.5,19.31,83.83,21.04,125.96,12.54c59.03-11.9,115.16-44.58,148.9-95.04C452.77,260,461.31,191.24,434.31,136.76z"/>
	</g>
</g>
<g id="Character">
	<g>
		<g>
			<g>
				<g>
					<path class="st7" d="M316.47,99.03c-2.24-1.38-3.63-4.02-3.53-6.64c0.11-2.63,1.72-5.14,4.06-6.33l8.94-1.73
						c-0.24,11.21-0.4,22.43-0.49,33.64c-2.28-0.43-4.61-1.13-6.33-2.7c-1.71-1.57-2.64-4.2-1.64-6.3
						c-1.78-0.88-3.06-2.71-3.26-4.69S314.91,100.25,316.47,99.03z"/>
				</g>
			</g>
			<g>
				<g>
					<g>
						<g>
							<g>
								<g>
									<g>
										<g>
											<g>
												<g>
													<g>
														<g>
															<path class="st8" d="M359.31,98.16l0.2-3.98l-23.76-5.29c-7.35-1.01-15.54,6.13-16.24,13.51
																c-0.77,8.2-1.39,18.24-0.61,24.4c1.58,12.39,10.98,14.25,10.98,14.25l-0.76,12.17c-0.3,7.11,5.64,8.86,12.75,9.18
																l0,0c6.95,0.3,12.89-4.96,13.42-11.9L359.31,98.16z"/>
														</g>
													</g>
												</g>
											</g>
										</g>
									</g>
								</g>
							</g>
							<g>
								<g>
									<g>
										<g>
											<g>
												<g>
													<g>
														<g>
															<g>
																<g>
																	<g>
																		<g>
																			<g>
																				<g>
																					<g>
																						<g>
																							<path class="st7" d="M322.8,112.52c-0.06,0.83,0.61,1.57,1.47,1.64c0.87,0.07,1.62-0.54,1.67-1.37
																								c0.06-0.83-0.6-1.57-1.47-1.64C323.6,111.07,322.85,111.69,322.8,112.52z"/>
																						</g>
																					</g>
																				</g>
																			</g>
																		</g>
																	</g>
																</g>
															</g>
														</g>
													</g>
												</g>
											</g>
										</g>
									</g>
								</g>
								<g>
									<g>
										<g>
											<g>
												<g>
													<g>
														<g>
															<g>
																<g>
																	<g>
																		<g>
																			<g>
																				<g>
																					<g>
																						<g>
																							<g>
																								<path class="st7" d="M321.96,107.72c0.19,0.21,1.41-0.64,3.12-0.58c1.7,0.03,2.92,0.95,3.11,0.74
																									c0.09-0.09-0.09-0.47-0.63-0.88c-0.52-0.41-1.42-0.82-2.48-0.85c-1.06-0.03-1.96,0.34-2.49,0.72
																									C322.05,107.26,321.86,107.62,321.96,107.72z"/>
																							</g>
																						</g>
																					</g>
																				</g>
																			</g>
																		</g>
																	</g>
																</g>
															</g>
														</g>
													</g>
												</g>
											</g>
										</g>
									</g>
								</g>
							</g>
							<g>
								<g>
									<g>
										<g>
											<g>
												<g>
													<g>
														<g>
															<g>
																<g>
																	<g>
																		<g>
																			<g>
																				<g>
																					<g>
																						<g>
																							<path class="st7" d="M338.81,112.77c-0.06,0.83,0.61,1.57,1.48,1.64c0.87,0.07,1.62-0.54,1.67-1.37
																								c0.06-0.83-0.6-1.57-1.47-1.64C339.62,111.32,338.86,111.94,338.81,112.77z"/>
																						</g>
																					</g>
																				</g>
																			</g>
																		</g>
																	</g>
																</g>
															</g>
														</g>
													</g>
												</g>
											</g>
										</g>
									</g>
								</g>
								<g>
									<g>
										<g>
											<g>
												<g>
													<g>
														<g>
															<g>
																<g>
																	<g>
																		<g>
																			<g>
																				<g>
																					<g>
																						<g>
																							<g>
																								<path class="st7" d="M338.67,108.56c0.19,0.21,1.42-0.64,3.12-0.58c1.7,0.03,2.92,0.95,3.11,0.74
																									c0.09-0.09-0.09-0.47-0.63-0.88c-0.52-0.41-1.42-0.82-2.48-0.85c-1.06-0.03-1.96,0.34-2.49,0.72
																									C338.77,108.09,338.58,108.46,338.67,108.56z"/>
																							</g>
																						</g>
																					</g>
																				</g>
																			</g>
																		</g>
																	</g>
																</g>
															</g>
														</g>
													</g>
												</g>
											</g>
										</g>
									</g>
								</g>
							</g>
							<g>
								<g>
									<g>
										<g>
											<g>
												<g>
													<g>
														<g>
															<g>
																<g>
																	<g>
																		<g>
																			<g>
																				<g>
																					<g>
																						<g>
																							<path class="st7" d="M332.1,120.98c0.01-0.1-1.04-0.31-2.75-0.58c-0.43-0.06-0.84-0.16-0.91-0.46
																								c-0.09-0.32,0.1-0.78,0.33-1.28c0.44-1.04,0.9-2.13,1.39-3.27c1.93-4.65,3.34-8.49,3.15-8.56
																								c-0.19-0.08-1.91,3.63-3.84,8.29c-0.47,1.15-0.91,2.24-1.33,3.29c-0.18,0.49-0.48,1.04-0.28,1.7
																								c0.11,0.33,0.42,0.57,0.69,0.66c0.28,0.09,0.52,0.11,0.73,0.13C331.02,121.04,332.09,121.08,332.1,120.98z"
																								/>
																						</g>
																					</g>
																				</g>
																			</g>
																		</g>
																	</g>
																</g>
															</g>
														</g>
													</g>
												</g>
											</g>
										</g>
									</g>
								</g>
							</g>
							<g>
								<g>
									<g>
										<g>
											<g>
												<g>
													<g>
														<g>
															<g>
																<g>
																	<g>
																		<g>
																			<g>
																				<g>
																					<g>
																						<path class="st9" d="M329.88,141.09c0,0,8.7,0.78,17.07-3.9c0,0-4.55,8.69-17.28,7.16L329.88,141.09z"/>
																					</g>
																				</g>
																			</g>
																		</g>
																	</g>
																</g>
															</g>
														</g>
													</g>
												</g>
											</g>
										</g>
									</g>
								</g>
							</g>
							<g>
								<g>
									<g>
										<g>
											<g>
												<g>
													<g>
														<g>
															<g>
																<g>
																	<g>
																		<g>
																			<g>
																				<g>
																					<g>
																						<path class="st9" d="M332.7,125.1c0.64-0.79,1.72-1.2,2.78-1.05c0.74,0.1,1.47,0.48,1.9,1.1
																							c0.43,0.62,0.5,1.47,0.07,2.03c-0.48,0.63-1.44,0.75-2.25,0.49c-0.81-0.26-1.49-0.81-2.13-1.37
																							c-0.18-0.15-0.36-0.31-0.47-0.52c-0.11-0.21-0.12-0.47,0.02-0.63"/>
																					</g>
																				</g>
																			</g>
																		</g>
																	</g>
																</g>
															</g>
														</g>
													</g>
												</g>
											</g>
										</g>
									</g>
								</g>
							</g>
							<g>
								<g>
									<g>
										<g>
											<g>
												<g>
													<g>
														<g>
															<g>
																<g>
																	<g>
																		<g>
																			<g>
																				<g>
																					<g>
																						<g>
																							<path class="st7" d="M337.07,122.31c-0.28-0.02-0.34,1.82-1.96,3.08c-1.62,1.27-3.58,1-3.6,1.26
																								c-0.03,0.11,0.43,0.37,1.26,0.42c0.81,0.05,2.01-0.17,3-0.94c0.99-0.77,1.44-1.83,1.52-2.59
																								C337.39,122.77,337.2,122.31,337.07,122.31z"/>
																						</g>
																					</g>
																				</g>
																			</g>
																		</g>
																	</g>
																</g>
															</g>
														</g>
													</g>
												</g>
											</g>
										</g>
									</g>
								</g>
							</g>
						</g>
					</g>
				</g>
				<g>
					<g>
						<g>
							<g>
								<g>
									<g>
										<g>
											<g>
												<g>
													<g>
														<g>
															<g>
																<g>
																	<g>
																		<g>
																			<path class="st7" d="M338.44,103.74c0.15,0.47,1.86,0.3,3.85,0.6c1.99,0.26,3.59,0.9,3.86,0.49
																				c0.12-0.19-0.14-0.64-0.78-1.11c-0.63-0.47-1.65-0.92-2.84-1.09c-1.19-0.17-2.3-0.01-3.03,0.26
																				C338.75,103.17,338.37,103.52,338.44,103.74z"/>
																		</g>
																	</g>
																</g>
															</g>
														</g>
													</g>
												</g>
											</g>
										</g>
									</g>
								</g>
							</g>
						</g>
					</g>
				</g>
				<g>
					<g>
						<g>
							<g>
								<g>
									<g>
										<g>
											<g>
												<g>
													<g>
														<g>
															<g>
																<g>
																	<g>
																		<g>
																			<path class="st7" d="M322.19,101.89c0.29,0.4,1.47,0.03,2.88,0.06c1.41-0.02,2.59,0.34,2.88-0.06
																				c0.13-0.19-0.05-0.59-0.56-0.97c-0.5-0.38-1.35-0.71-2.32-0.71c-0.97,0-1.82,0.32-2.32,0.71
																				C322.24,101.3,322.06,101.69,322.19,101.89z"/>
																		</g>
																	</g>
																</g>
															</g>
														</g>
													</g>
												</g>
											</g>
										</g>
									</g>
								</g>
							</g>
						</g>
					</g>
				</g>
			</g>
			<g>
				<g>
					<path class="st7" d="M315.53,91.23c-2.43-1.76-3.5-5.1-2.74-8c0.77-2.9,3.24-5.22,6.13-6c0.59-0.16,1.19-0.24,1.8-0.28
						c1.18-0.64,2.52-1,3.87-0.98c0.24-1.58,1.7-2.77,3.25-3.14c1.56-0.37,3.19-0.07,4.74,0.33c1.63-1.91,4.2-2.98,6.71-2.79
						c2.51,0.19,4.89,1.63,6.22,3.76c1.79-0.99,4.04-1.08,5.9-0.23c1.86,0.84,3.28,2.59,3.72,4.59c1.78,0.1,3.5,0.98,4.63,2.36
						c0.43,0.52,0.76,1.1,1.01,1.73c0.53,0.74,0.92,1.58,1.09,2.47c2.98,0.42,5.57,2.84,6.21,5.78c0.63,2.94-0.73,6.21-3.27,7.82
						c1.45,1.52,2.13,3.74,1.78,5.81c-0.35,2.07-1.72,3.94-3.59,4.9c0.65,2.25,0.32,4.76-0.88,6.76c-0.52,0.87-1.29,1.68-2.23,1.95
						c-0.05,0.16-0.11,0.32-0.2,0.46c-0.77,1.13-2.57,0.57-3.62-0.31c-2.54-2.15-3.84-5.45-4.48-8.71c-0.64-3.27-0.72-6.62-1.32-9.9
						c-0.01-0.07-0.03-0.15-0.04-0.23c-0.26-1.37-0.83-2.65-1.65-3.74c-0.98,0.64-1.95,1.32-3.01,1.8c-3.8,1.74-8.7,0.61-11.35-2.62
						c-2.61,2.05-5.95,3.16-9.26,3.06c-3.32-0.1-6.58-0.82-9.06-3.02c-0.47-0.42-1.1-1.15-1.38-2.12
						C314.32,92.12,314.92,91.39,315.53,91.23z"/>
				</g>
			</g>
			<g>
				<g>
					<g>
						<g>
							<g>
								<g>
									<g>
										<g>
											<g>
												<path class="st8" d="M356.82,114.39c0.17-0.08,6.7-2.33,6.8,4.44c0.1,6.77-6.71,5.48-6.73,5.28
													C356.87,123.92,356.82,114.39,356.82,114.39z"/>
											</g>
										</g>
									</g>
								</g>
							</g>
						</g>
					</g>
				</g>
			</g>
			<g>
				<g>
					<g>
						<g>
							<g>
								<g>
									<g>
										<g>
											<g>
												<g>
													<path class="st9" d="M358.92,121.52c0.03-0.02,0.12,0.08,0.32,0.17c0.2,0.09,0.53,0.14,0.88,0
														c0.71-0.27,1.3-1.42,1.31-2.64c0.01-0.62-0.13-1.2-0.36-1.68c-0.21-0.49-0.54-0.83-0.9-0.89
														c-0.36-0.08-0.61,0.14-0.69,0.33c-0.09,0.19-0.04,0.33-0.08,0.34c-0.02,0.02-0.15-0.11-0.1-0.39
														c0.03-0.13,0.1-0.3,0.26-0.43c0.16-0.13,0.4-0.21,0.65-0.18c0.52,0.03,1,0.5,1.25,1.03c0.28,0.53,0.45,1.19,0.44,1.88
														c-0.02,1.36-0.7,2.65-1.67,2.95c-0.47,0.13-0.87-0.01-1.08-0.16C358.93,121.68,358.89,121.53,358.92,121.52z"/>
												</g>
											</g>
										</g>
									</g>
								</g>
							</g>
						</g>
					</g>
				</g>
			</g>
			<g>
				<g>
					<g>
						<path class="st10" d="M313.17,82.13c-0.01,0-0.03,0.05-0.06,0.16c-0.04,0.11-0.08,0.27-0.12,0.49
							c-0.08,0.43-0.15,1.09,0.01,1.91c0.15,0.81,0.55,1.81,1.39,2.65c0.83,0.83,2.09,1.51,3.58,1.56l-0.12-0.11
							c0.27,1.95,1.14,4.09,2.71,5.92c0.79,0.91,1.76,1.74,2.94,2.29c1.17,0.58,2.55,0.74,3.88,0.64c1.33-0.1,2.6-0.43,3.77-0.89
							c1.17-0.46,2.27-1.03,3.15-1.83l-0.2,0c1.71,1.65,3.68,2.8,5.62,3.24c1.95,0.41,3.74,0.11,5.09-0.35
							c1.37-0.47,2.33-1.12,2.95-1.6c0.31-0.24,0.53-0.44,0.68-0.59c0.15-0.14,0.22-0.22,0.21-0.23c-0.02-0.02-0.32,0.28-0.95,0.74
							c-0.63,0.45-1.59,1.07-2.95,1.51c-1.34,0.43-3.1,0.7-4.98,0.28c-1.88-0.44-3.81-1.59-5.47-3.2l-0.1-0.1l-0.1,0.09
							c-0.83,0.75-1.92,1.31-3.06,1.76c-1.15,0.44-2.39,0.77-3.68,0.86c-1.3,0.1-2.61-0.05-3.73-0.6c-1.13-0.52-2.08-1.33-2.85-2.21
							c-1.54-1.78-2.41-3.87-2.69-5.77l-0.02-0.1l-0.1,0c-1.42-0.03-2.64-0.66-3.45-1.45c-0.82-0.79-1.22-1.75-1.39-2.54
							c-0.17-0.8-0.13-1.44-0.07-1.87C313.12,82.35,313.19,82.13,313.17,82.13z"/>
					</g>
				</g>
			</g>
			<g>
				<g>
					<g>
						<path class="st10" d="M360.91,84.66c-0.05,0.02,0.36,0.82,0.58,2.33c0.21,1.48,0.14,3.76-1.13,6.01l-0.05,0.1l0.08,0.07
							c0.78,0.68,1.42,1.64,1.78,2.76c0.36,1.12,0.41,2.39,0.02,3.6c-0.5,1.58-1.62,2.88-2.91,3.57l-0.12,0.07l0.06,0.13
							c0.7,1.41,0.9,2.92,0.76,4.23c-0.12,1.31-0.54,2.43-1,3.27c-0.95,1.71-1.99,2.34-1.94,2.39c0.01,0.01,0.07-0.03,0.18-0.12
							c0.11-0.09,0.28-0.2,0.48-0.38c0.4-0.36,0.94-0.94,1.44-1.8c0.49-0.85,0.95-1.99,1.09-3.34c0.16-1.34-0.03-2.91-0.75-4.39
							l-0.06,0.2c1.36-0.72,2.54-2.08,3.06-3.74c0.4-1.27,0.35-2.62-0.03-3.78c-0.38-1.17-1.06-2.17-1.88-2.88l0.03,0.17
							c1.28-2.33,1.31-4.67,1.05-6.17c-0.13-0.76-0.32-1.34-0.47-1.73c-0.07-0.19-0.15-0.34-0.19-0.43
							C360.94,84.71,360.92,84.66,360.91,84.66z"/>
					</g>
				</g>
			</g>
			<g>
				<g>
					<g>
						<path class="st7" d="M360.49,123.89c-0.06,0.02,0.18,0.47,0.13,1.22c-0.03,0.36-0.16,0.81-0.49,1.14
							c-0.32,0.33-0.88,0.53-1.39,0.39c-0.52-0.13-0.8-0.65-0.84-1.12c-0.06-0.48,0.08-0.91,0.24-1.25c0.33-0.68,0.62-1.08,0.58-1.1
							c-0.02-0.02-0.37,0.32-0.77,1.01c-0.19,0.34-0.37,0.82-0.32,1.38c0.03,0.27,0.1,0.56,0.27,0.82c0.17,0.26,0.44,0.48,0.77,0.56
							c0.65,0.17,1.29-0.09,1.67-0.49c0.39-0.41,0.5-0.93,0.51-1.33C360.83,124.29,360.5,123.87,360.49,123.89z"/>
					</g>
				</g>
			</g>
		</g>
		<g>
			<g>
				<path class="st8" d="M244.81,167.65c0,0,21.24-1.08,23.65-1.38c4.37-0.55,11.05,0.46,20.12-2.07
					c11.83-3.3,21.95-5.78,22.31-5.89c0.65-0.19,7.72-6.22,16.56-5.49l4.9,19.95l-11.29,8.73c0,0-31.63,3.08-33.21,2.88
					c-1.59-0.2-37.41-2.11-37.41-2.11l-3.47-10.87L244.81,167.65z"/>
			</g>
			<g>
				<g>
					<path class="st9" d="M286.24,181.91c-0.15-0.02,0.1-3.05,0.29-6.79c0.2-3.74,0.26-6.78,0.41-6.78c0.14,0,0.31,3.05,0.11,6.81
						C286.85,178.91,286.38,181.93,286.24,181.91z"/>
				</g>
			</g>
			<g>
				<g>
					<path class="st9" d="M307.7,180.7c-0.2-0.03,0.55-4.14,1.88-9.08c0.65-2.48,1.29-4.7,1.78-6.31c0.49-1.6,0.83-2.58,0.9-2.57
						c0.07,0.02-0.15,1.03-0.55,2.66c-0.46,1.79-1.01,3.95-1.63,6.34c-0.62,2.38-1.19,4.54-1.66,6.33
						C307.99,179.7,307.77,180.71,307.7,180.7z"/>
				</g>
			</g>
			<g>
				<g>
					<path class="st7" d="M249.25,167.22c0,0-1.84,1.06-1.73,1.84c0.12,0.78,5.49,8,6.39,8.24c0.9,0.24,4.84-0.32,5.04-0.56
						l1.2-1.29l-6.71-8.24H249.25z"/>
				</g>
				<g>
					<path class="st2" d="M249.64,167.8c0,0,5.59,8.07,5.81,7.96l3.96-0.43l-6.12-7.58L249.64,167.8z"/>
				</g>
				<g>
					<path class="st7" d="M255.28,176.92c0,0-0.03,1.68-1,3.03c-0.96,1.34-3.47,2.92-3.47,2.92h4.81c0,0,1.46-1.54,1.96-2.44
						c1.15-2.09,1.15-3.83,1.15-3.83L255.28,176.92z"/>
				</g>
				<g>
					<path class="st7" d="M250.19,167.61c0,0,0-0.12-1.26-0.39c-1.26-0.26-3.67-0.86-5.2,1.79l1.36,0.6h2.35l1.36-1.69
						L250.19,167.61z"/>
				</g>
			</g>
			<g>
				<g>
					<g>
						<path class="st8" d="M242.65,167.35c0,0-1.15-1.24-2.66-1.06c-1.51,0.18-2.83,1.51-3.28,2.04c-0.44,0.53-4.52,6.55-4.52,6.55
							s-1.42,5.54-0.53,6.67c0,0-1.59,2.49-0.89,4.38c0,0-1.51,2.77-1.06,3.3c0.44,0.53,2.39,0.8,3.19,0c0,0,1.51,1.06,3.24,0.09
							c1.72-0.97,2.52-1.15,2.52-1.15s2.39,2.39,3.99,2.39c1.59,0,3.37-0.8,4.34-2.39c0.97-1.59,1.42-2.6,2.3-3.78
							c0.89-1.18,3.19-2.32,3.72-3.56c0.53-1.25,0.8-4.44-1.59-5.85c0,0,0.53-3.99-3.54-5.23l-0.97-0.09
							C246.9,169.66,246.63,167.35,242.65,167.35z"/>
					</g>
					<g>
						<g>
							<path class="st9" d="M242.65,167.35c0-0.01,0.13-0.02,0.35-0.02c0.22-0.01,0.56,0.01,1.01,0.06c0.44,0.08,1,0.18,1.59,0.49
								c0.57,0.31,1.23,0.85,1.43,1.76l-0.12-0.11c0.3,0.02,0.63,0.05,0.98,0.08l0.01,0l0.02,0c0.92,0.26,1.93,0.79,2.68,1.74
								c0.73,0.95,1.13,2.25,1.02,3.64l-0.09-0.19c0.77,0.46,1.43,1.21,1.75,2.13c0.33,0.91,0.4,1.93,0.24,2.94
								c-0.09,0.5-0.21,1.03-0.55,1.5c-0.32,0.45-0.73,0.79-1.14,1.13c-0.81,0.68-1.74,1.26-2.37,2.09
								c-0.65,0.87-1.16,1.86-1.74,2.86c-0.3,0.49-0.56,1.02-0.97,1.5c-0.4,0.47-0.89,0.87-1.44,1.17
								c-0.54,0.31-1.15,0.51-1.77,0.62c-0.32,0.05-0.63,0.08-0.96,0.07c-0.36-0.01-0.67-0.13-0.97-0.24
								c-1.19-0.53-2.17-1.34-3.1-2.22l0.24,0.07c-0.03,0.01-0.06,0.02-0.09,0.03c-0.95,0.3-1.8,0.81-2.75,1.29
								c-1.03,0.43-2.2,0.29-3.12-0.29l0.33-0.03c-0.55,0.51-1.24,0.59-1.86,0.57c-0.32-0.01-0.63-0.06-0.94-0.15
								c-0.3-0.12-0.64-0.16-0.87-0.64c-0.08-0.42,0.03-0.7,0.1-1c0.09-0.29,0.19-0.56,0.3-0.83c0.23-0.54,0.47-1.05,0.74-1.55
								l-0.01,0.2c-0.29-0.83-0.21-1.69-0.01-2.46c0.21-0.77,0.53-1.47,0.93-2.13l0.01,0.27c-0.4-0.67-0.32-1.3-0.32-1.9
								c0.02-0.6,0.1-1.18,0.18-1.75c0.17-1.13,0.4-2.2,0.66-3.21l0.01-0.04l0.02-0.03c1.3-1.86,2.49-3.56,3.54-5.06
								c0.55-0.73,0.95-1.49,1.56-2.02c0.58-0.54,1.2-0.96,1.8-1.21c0.61-0.26,1.22-0.35,1.73-0.26c0.51,0.08,0.9,0.28,1.2,0.46
								c0.29,0.18,0.49,0.36,0.62,0.48C242.6,167.27,242.65,167.35,242.65,167.35c-0.02,0.02-0.26-0.25-0.85-0.58
								c-0.57-0.33-1.61-0.66-2.77-0.09c-0.57,0.26-1.15,0.67-1.7,1.21c-0.57,0.51-0.97,1.29-1.5,2.02
								c-1.03,1.51-2.18,3.21-3.46,5.09l0.03-0.06c-0.24,1-0.46,2.07-0.62,3.18c-0.08,0.56-0.15,1.12-0.16,1.7
								c-0.01,0.56,0,1.21,0.24,1.6l0.09,0.14l-0.07,0.13c-0.36,0.6-0.67,1.29-0.85,2c-0.19,0.71-0.24,1.48,0,2.16l0.04,0.11
								l-0.05,0.1c-0.25,0.48-0.5,0.99-0.71,1.5c-0.11,0.26-0.2,0.52-0.28,0.78c-0.08,0.25-0.13,0.56-0.1,0.71
								c0,0.07,0.3,0.25,0.54,0.3c0.25,0.08,0.53,0.12,0.8,0.13c0.54,0.02,1.13-0.09,1.48-0.43l0.15-0.14l0.18,0.12
								c0.75,0.47,1.77,0.6,2.63,0.23c0.85-0.43,1.78-0.99,2.8-1.31c0.04-0.01,0.09-0.02,0.13-0.04l0.13-0.04l0.11,0.11
								c0.88,0.84,1.87,1.64,2.93,2.11c0.27,0.1,0.54,0.2,0.8,0.2c0.27,0.01,0.57-0.01,0.85-0.06c0.57-0.1,1.12-0.28,1.61-0.56
								c0.5-0.27,0.94-0.63,1.3-1.05c0.36-0.41,0.63-0.92,0.93-1.42c0.57-0.99,1.1-2,1.78-2.9c0.73-0.93,1.67-1.49,2.47-2.16
								c0.4-0.33,0.79-0.66,1.06-1.04c0.27-0.36,0.4-0.84,0.48-1.31c0.35-1.88-0.3-3.84-1.75-4.66l-0.11-0.06l0.01-0.13
								c0.12-1.26-0.24-2.51-0.9-3.39c-0.68-0.89-1.61-1.41-2.49-1.68l0.03,0.01c-0.34-0.03-0.67-0.07-0.97-0.1l-0.1-0.01l-0.02-0.1
								c-0.15-0.76-0.74-1.32-1.27-1.61c-0.55-0.31-1.08-0.44-1.51-0.53C243.12,167.38,242.63,167.39,242.65,167.35z"/>
						</g>
					</g>
				</g>
				<g>
					<g>
						<path class="st9" d="M247.34,182.8c0.08,0.12-1.84,1.43-4.28,2.93c-2.44,1.5-4.47,2.61-4.55,2.49
							c-0.08-0.12,1.84-1.43,4.28-2.93C245.23,183.79,247.27,182.68,247.34,182.8z"/>
					</g>
				</g>
				<g>
					<g>
						<path class="st9" d="M246.96,177.01c0.04,0.06-0.84,0.68-2.28,1.67c-1.43,0.99-3.41,2.35-5.56,3.9
							c-2.15,1.55-4.08,2.99-5.45,4.04c-0.68,0.52-0.98,1.14-0.97,1.6c-0.01,0.46,0.18,0.68,0.14,0.7c-0.01,0.02-0.29-0.16-0.35-0.7
							c-0.09-0.52,0.24-1.31,0.93-1.89c1.34-1.14,3.22-2.62,5.38-4.18c2.16-1.55,4.17-2.87,5.66-3.78
							C245.98,177.45,246.93,176.95,246.96,177.01z"/>
					</g>
				</g>
				<g>
					<g>
						<path class="st9" d="M243.88,172.78c0.05,0.06-0.75,0.72-2.01,1.8c-1.26,1.08-2.98,2.6-4.8,4.37
							c-1.81,1.77-3.38,3.45-4.49,4.69c-1.11,1.23-1.79,2.01-1.85,1.96c-0.05-0.04,0.53-0.9,1.57-2.2c1.05-1.3,2.58-3.04,4.41-4.82
							c1.83-1.78,3.6-3.27,4.93-4.28C242.96,173.28,243.84,172.73,243.88,172.78z"/>
					</g>
				</g>
				<g>
					<g>
						<path class="st9" d="M239.28,171.29c0.11,0.1-1.67,2.31-3.74,5.13c-2.08,2.81-3.67,5.17-3.8,5.09
							c-0.12-0.07,1.29-2.57,3.38-5.4C237.21,173.28,239.18,171.2,239.28,171.29z"/>
					</g>
				</g>
			</g>
			<g>
				<g>
					<path class="st10" d="M247.65,169.37c-0.03,0.02-0.11-0.07-0.17-0.25c-0.02-0.05-0.03-0.1-0.04-0.15
						c-0.01-0.02-0.01-0.08,0-0.13l0.04-0.11c0.06-0.14,0.14-0.27,0.23-0.41c0.19-0.28,0.44-0.58,0.74-0.89
						c0.08-0.08,0.15-0.16,0.26-0.24c0.06-0.06,0.22-0.1,0.28-0.1l0.18-0.02c0.24-0.01,0.48-0.02,0.72-0.03
						c1.97-0.05,3.56,0.06,3.56,0.2c0,0.15-1.59,0.27-3.55,0.32c-0.24,0.01-0.47,0.01-0.71,0.02l-0.16,0.01
						c-0.05,0.01-0.01-0.02-0.03,0c-0.07,0.05-0.15,0.13-0.23,0.19c-0.3,0.28-0.57,0.55-0.78,0.77c-0.1,0.11-0.2,0.22-0.26,0.31
						c-0.03,0.06-0.04,0.05-0.05,0.09l0,0.14C247.67,169.25,247.68,169.35,247.65,169.37z"/>
				</g>
			</g>
			<g>
				<g>
					<path class="st10" d="M255.44,175.77c0.11,0.08-0.04,0.53-0.39,1.02c-0.34,0.5-0.85,0.75-0.93,0.61
						c-0.07-0.12,0.18-0.46,0.51-0.92C254.96,176.02,255.32,175.68,255.44,175.77z"/>
				</g>
			</g>
			<g>
				<g>
					<path class="st10" d="M259.75,175.88c0.06,0.05-0.2,0.43-0.66,0.99l-0.03,0.04l-0.08,0.02c-0.58,0.14-1.35,0.29-2.21,0.43
						c-0.92,0.13-1.79,0.33-2.46,0.18c-0.68-0.11-0.96-0.54-0.87-0.58c0.05-0.04,0.33,0.2,0.92,0.21c0.57,0.04,1.39-0.19,2.33-0.33
						c0.85-0.14,1.63-0.24,2.22-0.3l-0.11,0.06C259.34,176.11,259.7,175.83,259.75,175.88z"/>
				</g>
			</g>
		</g>
		<g>
			<g>
				<path class="st8" d="M371.82,157.5l-11-8.27l-5.36-3.92l-23.73,4.54c0,0-9.89,4.26-12.2,5.49c-2.31,1.23-10.14,2.77-9.22,14.29
					c0.92,11.53-0.08,19.84-0.08,19.84l-5.33,44.15l0.33,10.22c0,0-1.23,8.78-1.38,14.16l51.48-5.07l-2.56-23.22l3.09-32.19
					L371.82,157.5z"/>
			</g>
			<g>
				<path class="st11" d="M323.76,152.89c0,0-17,29.36-19.07,33.07c-2.06,3.71-5.36,7.22-4.95,15.47
					c0.41,8.25,5.16,18.16,5.16,18.16v14.03l47.87-3.92l3.09-32.19c0,0-21.04-4.75-17.74-20.22c3.3-15.47,14.65-29.3,22.7-28.06
					l-5.36-3.92c0,0-5.1,2.17-14.21,10.11c0,0-9.3,6.99-12.21,5.34c-3.78-2.14,0.24-9.98,0.24-9.98L323.76,152.89z"/>
			</g>
			<g>
				<g>
					<path class="st7" d="M330.47,208.79c0,0.03-0.41,0.13-1.17,0.23c-0.76,0.09-1.88,0.14-3.25-0.01c-2.71-0.26-6.54-1.5-9.62-4.44
						c-3.07-2.95-4.48-6.72-4.86-9.42c-0.2-1.36-0.21-2.48-0.15-3.24c0.06-0.76,0.14-1.18,0.17-1.18c0.11,0-0.15,1.7,0.34,4.36
						c0.46,2.63,1.88,6.25,4.85,9.1c2.98,2.84,6.66,4.1,9.3,4.45C328.78,209.02,330.47,208.68,330.47,208.79z"/>
				</g>
			</g>
			<g class="st12">
				<g>
					<path d="M316.88,204.44c-3.62-2.78-4.87-7.52-5.25-12.25c-1.17,4.82-0.02,10.72,3.65,14.06c3.67,3.33,9.21,4.46,13.89,2.83
						C324.65,208.49,320.5,207.22,316.88,204.44z"/>
				</g>
			</g>
		</g>
		<g>
			<g>
				<g>
					<polygon class="st8" points="325.32,443.75 331.49,459.68 319.51,466.38 312.48,462.97 305.72,448.7 					"/>
				</g>
			</g>
			<g>
				<g>
					<g>
						<g>
							<g>
								<g>
									<g>
										<g>
											<path class="st10" d="M310.72,462.04l0.46,1.22c0,0-17.47,16.13-16.2,20.13l40.88-15.79l-5.81-13.39
												C325.05,459.37,318.82,462.15,310.72,462.04z"/>
										</g>
									</g>
								</g>
							</g>
						</g>
					</g>
					<g class="st13">
						<g>
							<g>
								<g>
									<g>
										<g>
											<g>
												<path class="st4" d="M327.58,460.16c0.87-0.09,1.76,0.59,1.89,1.46c0.13,0.87-0.56,1.78-1.43,1.89
													c-0.87,0.1-1.97-0.68-1.99-1.56c-0.03-0.88,0.83-1.9,1.7-1.8"/>
											</g>
										</g>
									</g>
								</g>
							</g>
						</g>
					</g>
					<g class="st13">
						<g>
							<g>
								<g>
									<g>
										<g>
											<path class="st4" d="M335.85,467.6l-1.4-3.22l-38.67,16.32c0,0-1.51,1.5-0.81,2.7L335.85,467.6z"/>
										</g>
									</g>
								</g>
							</g>
						</g>
					</g>
					<g>
						<g>
							<g>
								<g>
									<g>
										<g>
											<g>
												<path class="st7" d="M311.08,463.43c0.08,0.2,1.12-0.1,2.35,0.16c1.24,0.23,2.08,0.9,2.23,0.75
													c0.17-0.11-0.59-1.19-2.08-1.48C312.08,462.56,310.97,463.26,311.08,463.43z"/>
											</g>
										</g>
									</g>
								</g>
							</g>
						</g>
					</g>
					<g>
						<g>
							<g>
								<g>
									<g>
										<g>
											<g>
												<path class="st7" d="M307.48,466.86c0.03,0.21,1.02,0.22,2.03,0.8c1.02,0.55,1.54,1.4,1.74,1.31
													c0.2-0.04-0.11-1.26-1.38-1.96C308.62,466.3,307.41,466.67,307.48,466.86z"/>
											</g>
										</g>
									</g>
								</g>
							</g>
						</g>
					</g>
					<g>
						<g>
							<g>
								<g>
									<g>
										<g>
											<g>
												<path class="st7" d="M307.03,472.93c0.2-0.03,0.09-1.13-0.84-2.03c-0.93-0.9-2.04-0.97-2.06-0.77
													c-0.05,0.21,0.78,0.56,1.54,1.31C306.44,472.17,306.82,472.99,307.03,472.93z"/>
											</g>
										</g>
									</g>
								</g>
							</g>
						</g>
					</g>
				</g>
			</g>
		</g>
		<g>
			<g>
				<polygon class="st8" points="356.09,453.29 355.7,470.37 342.07,471.98 336.88,466.14 336.09,450.37 				"/>
			</g>
		</g>
		<g>
			<g>
				<g>
					<g>
						<g>
							<g>
								<g>
									<g>
										<path class="st10" d="M335.61,464.61l-0.04,1.3c0,0-22.31,8.22-22.67,12.4l43.81,1.04l-0.25-14.59
											C349.87,467.62,343.05,467.8,335.61,464.61z"/>
									</g>
								</g>
							</g>
						</g>
					</g>
				</g>
				<g class="st13">
					<g>
						<g>
							<g>
								<g>
									<g>
										<g>
											<path class="st4" d="M351.91,469.32c0.84,0.25,1.41,1.22,1.19,2.07c-0.22,0.85-1.2,1.43-2.04,1.2
												c-0.85-0.24-1.56-1.38-1.25-2.2c0.31-0.82,1.5-1.44,2.26-1.01"/>
										</g>
									</g>
								</g>
							</g>
						</g>
					</g>
				</g>
				<g class="st13">
					<g>
						<g>
							<g>
								<g>
									<g>
										<path class="st4" d="M356.71,479.35l-0.06-3.51l-41.97,0.29c0,0-1.97,0.8-1.78,2.18L356.71,479.35z"/>
									</g>
								</g>
							</g>
						</g>
					</g>
				</g>
				<g>
					<g>
						<g>
							<g>
								<g>
									<g>
										<g>
											<path class="st7" d="M335.41,466.03c0,0.21,1.07,0.34,2.11,1.05c1.05,0.69,1.58,1.63,1.77,1.54
												c0.2-0.04-0.09-1.32-1.36-2.16C336.67,465.61,335.37,465.83,335.41,466.03z"/>
										</g>
									</g>
								</g>
							</g>
						</g>
					</g>
				</g>
				<g>
					<g>
						<g>
							<g>
								<g>
									<g>
										<g>
											<path class="st7" d="M330.77,467.82c-0.05,0.21,0.86,0.59,1.57,1.51c0.73,0.9,0.89,1.88,1.11,1.88
												c0.2,0.04,0.38-1.21-0.52-2.34C332.04,467.74,330.78,467.62,330.77,467.82z"/>
										</g>
									</g>
								</g>
							</g>
						</g>
					</g>
				</g>
				<g>
					<g>
						<g>
							<g>
								<g>
									<g>
										<g>
											<path class="st7" d="M328.03,473.26c0.19,0.05,0.52-1.01-0.01-2.2c-0.51-1.19-1.51-1.67-1.61-1.5
												c-0.13,0.17,0.51,0.82,0.92,1.8C327.78,472.33,327.82,473.23,328.03,473.26z"/>
										</g>
									</g>
								</g>
							</g>
						</g>
					</g>
				</g>
			</g>
		</g>
		<g>
			<g>
				<path class="st7" d="M354.33,243.84c0,0,15.1,20.15,15.76,36.52c0.66,16.37-5.34,29.23-5.34,29.23s-7.33,40-8.4,53.06
					c-1.07,13.06,0,26.53,0,26.53s3.07,20.28,3.41,28.94c0.34,8.66-3.72,40.64-3.72,40.64h-19.87c0,0-8.46-70.41-9.49-75.55
					c-1.02-5.13-3.53-16.38-3.53-16.38s-8.12-54.66-8.12-71.98s-1.71-43.42-1.71-43.42C329.74,250.06,344.53,248.01,354.33,243.84z"
					/>
			</g>
			<g>
				<path class="st7" d="M304.11,250.63c0,0-38.58,108.35-37.93,113.88c0.65,5.54,43.18,91.69,43.18,91.69l17.78-7.96l-13.8-59
					l-12.1-26.08l19.57-32.81l8.83-48.3l-11.78-30.46L304.11,250.63z"/>
			</g>
			<g>
				<g>
					<path class="st10" d="M313.34,277.55c0.02,0,0.06,0.24,0.12,0.69c0.06,0.51,0.14,1.16,0.24,1.98c0.19,1.78,0.46,4.26,0.79,7.29
						c0.62,6.22,1.47,14.71,2.41,24.08c0.88,9.39,1.68,17.88,2.26,24.1c0.26,3.04,0.47,5.52,0.63,7.31
						c0.06,0.82,0.11,1.48,0.14,1.99c0.03,0.46,0.03,0.7,0.01,0.7c-0.02,0-0.06-0.23-0.12-0.69c-0.06-0.5-0.14-1.16-0.24-1.98
						c-0.19-1.78-0.46-4.26-0.79-7.29c-0.62-6.22-1.47-14.71-2.41-24.09c-0.88-9.39-1.68-17.88-2.26-24.1
						c-0.26-3.04-0.47-5.52-0.63-7.31c-0.06-0.82-0.11-1.48-0.14-1.99C313.33,277.79,313.32,277.55,313.34,277.55z"/>
				</g>
			</g>
			<g>
				<g>
					<path class="st10" d="M356.84,248.03c0.01,0.02-0.16,0.1-0.49,0.23c-0.39,0.15-0.87,0.34-1.46,0.57
						c-1.26,0.5-3.12,1.14-5.44,1.86c-2.32,0.73-5.11,1.49-8.25,2.21c-3.14,0.7-6.61,1.35-10.29,1.85
						c-3.68,0.48-7.21,0.75-10.42,0.89c-3.21,0.11-6.11,0.11-8.54,0.01c-2.43-0.1-4.39-0.23-5.74-0.39
						c-0.63-0.07-1.14-0.13-1.55-0.18c-0.35-0.05-0.54-0.08-0.54-0.1c0-0.02,0.19-0.02,0.55-0.01c0.42,0.02,0.93,0.05,1.56,0.08
						c1.35,0.09,3.31,0.17,5.74,0.22c2.42,0.06,5.31,0.02,8.51-0.12c3.2-0.17,6.71-0.45,10.37-0.93c3.66-0.49,7.13-1.13,10.26-1.8
						c3.13-0.7,5.92-1.41,8.24-2.1c2.33-0.68,4.2-1.27,5.48-1.7c0.6-0.19,1.09-0.35,1.49-0.48
						C356.65,248.06,356.83,248.02,356.84,248.03z"/>
				</g>
			</g>
			<g>
				<g>
					<path class="st4" d="M344.45,252.98c0,0,0.08,0.16,0.2,0.49c0.13,0.35,0.31,0.83,0.54,1.46c0.48,1.28,1.14,3.19,1.93,5.67
						c1.57,4.96,3.61,12.22,5.17,21.4c1.56,9.17,2.63,20.26,2.2,32.57c-0.34,12.31-2.07,25.74-3.21,39.86
						c-1.23,14.13-0.79,27.66-0.08,39.92c0.73,12.27,1.51,23.31,1.7,32.62c0.24,9.3-0.08,16.83-0.56,22.01
						c-0.18,2.6-0.48,4.59-0.64,5.95c-0.09,0.66-0.16,1.18-0.2,1.54c-0.05,0.35-0.09,0.52-0.09,0.52s0-0.18,0.03-0.53
						c0.04-0.37,0.09-0.88,0.15-1.55c0.13-1.36,0.4-3.36,0.55-5.96c0.41-5.18,0.68-12.7,0.39-21.99c-0.24-9.29-1.06-20.33-1.82-32.6
						c-0.74-12.26-1.19-25.83,0.04-39.99c1.13-14.14,2.88-27.56,3.25-39.83c0.45-12.27-0.57-23.33-2.08-32.49
						c-1.51-9.17-3.49-16.44-5-21.4c-0.76-2.48-1.39-4.4-1.84-5.69c-0.21-0.63-0.38-1.12-0.49-1.48
						C344.49,253.15,344.45,252.98,344.45,252.98z"/>
				</g>
			</g>
			<g>
				<g>
					<path class="st4" d="M340.74,254.92c0,0,0.08,0.16,0.2,0.49c0.13,0.35,0.31,0.83,0.54,1.46c0.48,1.28,1.14,3.19,1.93,5.67
						c1.57,4.96,3.61,12.22,5.17,21.4c1.56,9.17,2.63,20.26,2.2,32.57c-0.34,12.31-2.07,25.74-3.21,39.86
						c-1.23,14.13-0.79,27.66-0.08,39.92c0.73,12.27,1.51,23.31,1.7,32.62c0.24,9.3-0.08,16.83-0.56,22.01
						c-0.18,2.6-0.48,4.59-0.64,5.95c-0.09,0.66-0.16,1.18-0.2,1.54c-0.05,0.35-0.09,0.52-0.09,0.52s0-0.18,0.03-0.53
						c0.04-0.37,0.09-0.88,0.15-1.55c0.13-1.36,0.4-3.36,0.55-5.96c0.41-5.18,0.68-12.7,0.39-21.99c-0.24-9.29-1.06-20.33-1.82-32.6
						c-0.74-12.26-1.19-25.83,0.04-39.99c1.13-14.14,2.88-27.56,3.25-39.83c0.45-12.27-0.57-23.33-2.08-32.49
						c-1.51-9.17-3.49-16.44-5-21.4c-0.76-2.48-1.39-4.4-1.84-5.69c-0.21-0.63-0.38-1.12-0.49-1.48
						C340.78,255.09,340.74,254.92,340.74,254.92z"/>
				</g>
			</g>
		</g>
		<g>
			<g>
				<path class="st2" d="M358.81,118.36c0,0-0.33,0.81-0.36,1.16c-0.03,0.35,0.21,0.71,0.55,0.81c0.22,0.07,0.46,0.03,0.69,0.09
					c0.48,0.12,0.76,0.64,0.8,1.13c0.04,0.49-0.11,0.98-0.18,1.46c-0.04,0.25-0.06,0.52,0.02,0.76c0.08,0.24,0.29,0.46,0.55,0.48
					c0.33,0.03,0.59-0.25,0.76-0.54c0.27-0.46,0.42-0.99,0.54-1.51c0.17-0.76,0.28-1.55,0.15-2.31c-0.13-0.77-0.55-1.51-1.23-1.89
					C360.4,117.64,359.3,117.76,358.81,118.36"/>
			</g>
			<g>
				<g>
					<path class="st2" d="M337.03,195.55c-0.02,0.01-0.16-0.24-0.43-0.72c-0.27-0.47-0.62-1.21-1-2.18
						c-0.74-1.93-1.53-4.92-1.31-8.67c0.11-1.86,0.45-3.9,1.19-5.98c0.75-2.07,1.89-4.17,3.43-6.09c3.05-3.91,7.47-7.13,11.13-11.4
						c1.82-2.15,3.41-4.39,4.79-6.66c1.32-2.3,2.48-4.59,3.37-6.85c1.83-4.53,2.75-8.86,3.21-12.51c0.44-3.67,0.4-6.67,0.29-8.73
						c-0.04-1.03-0.16-1.83-0.19-2.37c-0.04-0.54-0.06-0.83-0.04-0.83c0.02,0,0.07,0.28,0.14,0.82c0.06,0.54,0.21,1.34,0.28,2.37
						c0.18,2.07,0.27,5.09-0.13,8.79c-0.41,3.69-1.31,8.07-3.13,12.65c-0.89,2.29-2.05,4.61-3.38,6.94
						c-1.39,2.29-2.99,4.57-4.83,6.73c-3.72,4.32-8.13,7.53-11.15,11.35c-1.53,1.89-2.65,3.92-3.4,5.94
						c-0.75,2.02-1.1,4.02-1.23,5.85c-0.26,3.68,0.46,6.64,1.13,8.58C336.49,194.53,337.09,195.52,337.03,195.55z"/>
				</g>
			</g>
			<g>
				<g>
					<path class="st2" d="M321.55,134.77c0.04,0.01-0.12,0.62-0.35,1.73c-0.24,1.11-0.47,2.74-0.51,4.76
						c-0.13,4.03,0.89,9.66,3.56,15.24c2.68,5.58,6.11,10.07,8.58,13.29c1.21,1.55,2.22,2.83,2.97,3.79c0.7,0.9,1.08,1.4,1.05,1.43
						c-0.03,0.02-0.46-0.44-1.2-1.3c-0.75-0.86-1.82-2.11-3.1-3.69c-2.55-3.16-6.05-7.65-8.76-13.29
						c-2.71-5.65-3.68-11.38-3.46-15.47c0.09-2.05,0.39-3.69,0.69-4.79c0.13-0.56,0.29-0.97,0.38-1.26
						C321.47,134.91,321.53,134.76,321.55,134.77z"/>
				</g>
			</g>
		</g>
		<g>
			<g>
				<path class="st9" d="M261.14,191.86c0.25,0.44,0.51,0.87,0.76,1.31c0.08,0.14,0.18,0.3,0.34,0.35c0.2,0.06,0.41-0.06,0.56-0.21
					c0.53-0.5,0.79-1.26,0.78-1.99c-0.01-0.73-0.26-1.45-0.61-2.09c-0.16-0.3-0.38-0.6-0.7-0.7c-0.32-0.09-0.66,0.05-0.96,0.2
					c-0.41,0.2-0.8,0.42-1.19,0.67c-0.19,0.12-0.39,0.27-0.41,0.48c-0.02,0.17,0.07,0.33,0.16,0.47
					C260.19,190.91,260.81,191.31,261.14,191.86"/>
			</g>
			<g>
				<g>
					<path class="st8" d="M344.91,172.92l-14.58,42.73l-45.03-27.43l-8.33,9.17c0,0,35.21,35.04,41.41,40.11
						c6.2,5.06,16.21,5.64,19.45,4.82c3.24-0.82,10.45-10.38,18.27-23.83c7.82-13.45,16.74-35.86,17.96-44.43
						c1.22-8.57,1.31-13.12-2.25-16.56"/>
				</g>
				<g>
					<g>
						<path class="st9" d="M371.82,157.5c0,0,0.18,0.17,0.53,0.51c0.33,0.36,0.8,0.91,1.27,1.75c0.47,0.83,0.89,1.95,1.1,3.33
							c0.22,1.38,0.25,2.99,0.15,4.79c-0.1,1.8-0.34,3.79-0.64,5.96c-0.31,2.18-0.91,4.49-1.63,6.95
							c-1.46,4.9-3.47,10.38-5.93,16.32c-2.47,5.94-5.38,12.37-8.99,19.03c-1.83,3.32-3.85,6.67-6,10.08
							c-2.17,3.4-4.48,6.86-7.12,10.2c-1.34,1.66-2.73,3.33-4.4,4.77c-0.43,0.35-0.87,0.69-1.37,0.97c-0.23,0.16-0.54,0.23-0.8,0.35
							c-0.28,0.08-0.56,0.12-0.83,0.18c-1.11,0.17-2.24,0.18-3.36,0.15c-2.24-0.07-4.5-0.4-6.72-0.96
							c-2.21-0.57-4.41-1.37-6.44-2.55c-2.05-1.17-3.76-2.82-5.5-4.4c-1.73-1.6-3.45-3.23-5.18-4.88c-3.45-3.3-6.94-6.68-10.45-10.1
							c-7.85-7.67-15.45-15.18-22.7-22.39l-0.17-0.17l0.16-0.18c2.84-3.12,5.61-6.18,8.33-9.17l0.14-0.15l0.17,0.11
							c17.04,10.41,32.35,19.76,45,27.48l-0.28,0.1c4.53-13.17,8.2-23.84,10.75-31.24c1.28-3.67,2.27-6.53,2.95-8.49
							c0.34-0.96,0.6-1.69,0.78-2.2c0.18-0.5,0.28-0.74,0.28-0.74s-0.07,0.26-0.23,0.76c-0.17,0.52-0.41,1.26-0.73,2.22
							c-0.66,1.96-1.62,4.83-2.85,8.52c-2.51,7.41-6.12,18.09-10.59,31.29l-0.08,0.22l-0.2-0.12c-12.67-7.7-27.99-17.01-45.06-27.38
							l0.31-0.04c-2.72,2.99-5.49,6.05-8.33,9.18l-0.01-0.35c7.25,7.2,14.86,14.71,22.71,22.38c3.52,3.41,7.01,6.78,10.44,10.1
							c1.73,1.65,3.45,3.28,5.17,4.87c1.74,1.58,3.42,3.2,5.4,4.33c1.98,1.15,4.13,1.94,6.31,2.5c2.18,0.56,4.4,0.88,6.61,0.95
							c1.1,0.03,2.2,0.02,3.27-0.14c1.09-0.1,1.93-0.7,2.77-1.39c1.62-1.4,3.01-3.05,4.34-4.7c2.63-3.32,4.94-6.77,7.11-10.15
							c2.16-3.39,4.18-6.74,6.01-10.04c3.62-6.63,6.54-13.04,9.03-18.97c2.47-5.93,4.5-11.38,5.99-16.27
							c0.73-2.44,1.34-4.74,1.66-6.9c0.31-2.16,0.56-4.15,0.68-5.94c0.12-1.79,0.1-3.39-0.1-4.75c-0.2-1.36-0.59-2.48-1.04-3.3
							C372.61,158.16,371.76,157.54,371.82,157.5z"/>
					</g>
				</g>
			</g>
			<g>
				<path class="st10" d="M336.96,196.22l24.65,11.3c0,0,6.11-13.09,6.98-15.71l-26.06-11.94L336.96,196.22z"/>
			</g>
			<g>
				<g>
					<path class="st9" d="M332.9,229.1c-0.16,0-0.09-3.13-0.85-6.88c-0.74-3.76-2.01-6.61-1.86-6.68c0.06-0.03,0.46,0.65,0.94,1.83
						c0.49,1.17,1.05,2.85,1.43,4.75c0.38,1.9,0.51,3.66,0.51,4.93C333.07,228.32,332.97,229.1,332.9,229.1z"/>
				</g>
			</g>
			<g>
				<g>
					<path class="st9" d="M334.86,221.53c-0.14,0.06-0.88-1.43-2.13-3.03c-1.24-1.61-2.5-2.7-2.41-2.82
						c0.07-0.11,1.53,0.83,2.82,2.5C334.44,219.85,334.99,221.49,334.86,221.53z"/>
				</g>
			</g>
			<g>
				<path class="st7" d="M351.4,211.96l-9.09-3.81c-1.93-0.81-2.85-3.04-2.03-4.97l10.18-24.25c0.81-1.93,3.04-2.85,4.97-2.03
					l9.09,3.81c1.93,0.81,2.85,3.04,2.03,4.97l-10.18,24.25C355.56,211.86,353.33,212.77,351.4,211.96z"/>
			</g>
			<g>
				<g>
					<path class="st2" d="M358.55,214.58c-0.04,0,0.59-0.24,1.34,0.41c0.35,0.31,0.68,0.82,0.79,1.49c0.12,0.68-0.09,1.47-0.52,2.18
						c-0.43,0.72-1.06,1.37-1.74,2.03c-0.68,0.66-1.45,1.35-2.32,1.98c-0.87,0.63-1.87,1.21-2.99,1.61
						c-1.13,0.39-2.38,0.57-3.64,0.42c-1.26-0.15-2.47-0.67-3.36-1.51c-0.89-0.83-1.47-1.88-1.78-2.93
						c-0.66-2.11-0.36-4.15,0.09-5.69c0.45-1.57,1.02-2.75,1.41-3.56c0.4-0.81,0.64-1.24,0.67-1.23c0.03,0.02-0.15,0.48-0.49,1.31
						c-0.33,0.83-0.84,2.03-1.24,3.57c-0.39,1.53-0.63,3.47,0.01,5.45c0.31,0.98,0.86,1.95,1.67,2.7c0.81,0.75,1.9,1.23,3.08,1.37
						c2.38,0.29,4.61-0.69,6.3-1.9c0.86-0.6,1.61-1.26,2.3-1.9c0.69-0.64,1.31-1.25,1.72-1.91c0.42-0.65,0.63-1.35,0.55-1.94
						c-0.08-0.6-0.35-1.08-0.65-1.39C359.12,214.5,358.53,214.64,358.55,214.58z"/>
				</g>
			</g>
			<g>
				<g>
					<path class="st8" d="M286.59,189c0,0-9.46-11.96-10.98-12.57c-1.52-0.61-8.21-3.8-8.21-3.8l-11.41-1.22
						c0,0-0.61,3.19,1.67,3.65c2.28,0.46,4.71,1.22,4.71,1.22l3.65,1.82c0,0-6.54,1.67-6.84,2.36c-0.3,0.68-0.15,1.6-0.15,1.6
						s-1.52,1.52-1.52,3.8l-1.59,5.02l3.77,5.23c0,0,1.21-1.02,1.36-2.54c0.15-1.52-1.48-3.01-1.48-3.01l1.89-1.66h1.98
						c0,0,10.34,7.3,13.08,8.06l3.04,2.89"/>
				</g>
				<g>
					<g>
						<path class="st9" d="M279.57,199.85c-0.01,0.01-0.08-0.05-0.21-0.17c-0.16-0.14-0.35-0.31-0.6-0.53
							c-0.55-0.51-1.31-1.21-2.3-2.12l0.04,0.02c-1.61-0.53-3.46-1.67-5.68-3.03c-2.2-1.37-4.72-3.04-7.49-4.97l0.12,0.04
							c-0.61,0-1.29,0-1.98,0.01l0.14-0.05c-0.58,0.52-1.23,1.08-1.89,1.66l0-0.32c0.74,0.74,1.45,1.64,1.56,2.83
							c0.02,1.19-0.58,2.25-1.44,3.06l-0.19,0.17l-0.16-0.22c-1.2-1.66-2.47-3.41-3.78-5.22l-0.07-0.1l0.04-0.12
							c0.5-1.59,1.04-3.29,1.59-5.02l-0.01,0.08c0.01-1.4,0.56-2.85,1.59-3.98l-0.07,0.23c-0.07-0.57-0.07-1.14,0.16-1.72
							c0.04-0.08,0.13-0.18,0.21-0.25c0.07-0.05,0.13-0.09,0.2-0.13c0.13-0.09,0.26-0.13,0.39-0.2c0.26-0.12,0.52-0.22,0.78-0.32
							c1.05-0.39,2.12-0.7,3.21-1.02c0.75-0.2,1.5-0.41,2.24-0.61l-0.05,0.48c-1.23-0.62-2.45-1.22-3.65-1.83l0.04,0.02
							c-1.53-0.46-3.06-0.88-4.57-1.19c-0.39-0.09-0.84-0.22-1.16-0.53c-0.33-0.29-0.55-0.67-0.69-1.06
							c-0.26-0.79-0.25-1.59-0.13-2.37l0.03-0.23l0.24,0.03c4.05,0.44,7.88,0.86,11.4,1.24l0.04,0l0.04,0.02
							c1.75,0.82,3.43,1.6,5.02,2.35c0.8,0.37,1.57,0.74,2.33,1.09c0.38,0.2,0.74,0.3,1.13,0.58c0.35,0.26,0.64,0.54,0.92,0.82
							c2.2,2.28,3.9,4.42,5.34,6.15c1.42,1.75,2.52,3.14,3.26,4.09c0.35,0.46,0.62,0.82,0.83,1.1c0.18,0.25,0.28,0.38,0.27,0.39
							c-0.01,0.01-0.12-0.11-0.32-0.35c-0.22-0.27-0.52-0.61-0.89-1.05c-0.8-0.96-1.93-2.31-3.35-4.01
							c-1.46-1.71-3.2-3.84-5.39-6.06c-0.27-0.27-0.57-0.55-0.87-0.77c-0.26-0.21-0.71-0.35-1.07-0.53
							c-0.76-0.35-1.54-0.71-2.34-1.07c-1.61-0.74-3.29-1.51-5.05-2.32l0.07,0.02c-3.53-0.37-7.35-0.77-11.41-1.19l0.27-0.2
							c-0.1,0.69-0.1,1.45,0.12,2.12c0.22,0.67,0.74,1.16,1.48,1.26c1.54,0.32,3.07,0.73,4.62,1.2l0.02,0.01l0.02,0.01
							c1.2,0.6,2.42,1.21,3.65,1.82l0.61,0.3l-0.66,0.18c-0.74,0.2-1.48,0.4-2.23,0.61c-1.08,0.31-2.15,0.63-3.17,1
							c-0.26,0.09-0.5,0.19-0.74,0.3c-0.11,0.06-0.25,0.11-0.34,0.17l-0.14,0.09c-0.01,0.03-0.03,0.02-0.05,0.05
							c-0.18,0.42-0.19,0.96-0.13,1.43l0.02,0.13l-0.09,0.1c-0.91,1-1.45,2.37-1.45,3.62l0,0.04l-0.01,0.04
							c-0.55,1.73-1.09,3.43-1.6,5.02l-0.04-0.22c1.3,1.81,2.57,3.57,3.76,5.23l-0.34-0.04c0.76-0.69,1.31-1.71,1.29-2.67
							c-0.07-0.97-0.73-1.86-1.4-2.53l-0.17-0.17l0.18-0.15c0.66-0.58,1.31-1.14,1.9-1.65l0.06-0.05l0.08,0
							c0.69,0,1.37,0.01,1.98,0.01l0.06,0l0.05,0.04c2.75,1.94,5.25,3.63,7.43,5.03c2.18,1.37,4.03,2.55,5.56,3.1l0.03,0.01
							l0.01,0.01c0.95,0.94,1.7,1.66,2.23,2.19c0.23,0.23,0.42,0.42,0.56,0.57C279.51,199.77,279.57,199.84,279.57,199.85z"/>
					</g>
				</g>
			</g>
			<g>
				<g>
					<path class="st9" d="M264.96,184.39c0,0.15-1.67,0.23-3.68,0.66c-2.01,0.42-3.57,1.02-3.63,0.88
						c-0.06-0.12,1.45-0.96,3.52-1.39C263.25,184.1,264.97,184.25,264.96,184.39z"/>
				</g>
			</g>
			<g>
				<g>
					<path class="st9" d="M267.25,180.82c0.01,0.15-1.81,0.31-4,0.71c-2.2,0.39-3.95,0.89-4,0.74c-0.05-0.13,1.66-0.85,3.9-1.26
						C265.4,180.61,267.25,180.69,267.25,180.82z"/>
				</g>
			</g>
			<g>
				<g>
					<path class="st9" d="M272.82,176.47c0.01,0.13-1.54,0.52-3.46,1.09c-1.93,0.57-3.57,0.79-3.59,0.64
						c-0.02-0.13,1.53-0.57,3.45-1.14C271.15,176.49,272.81,176.32,272.82,176.47z"/>
				</g>
			</g>
		</g>
	</g>
</g>
<g id="Screens">
	<g>
		<g>
			<g>
				<g>
					<path class="st10" d="M206.53,274.53h-61.08c-7.85,0-14.22-6.37-14.22-14.22v-71.67c0-7.85,6.37-14.22,14.22-14.22h61.08
						c7.85,0,14.22,6.37,14.22,14.22v71.67C220.75,268.17,214.38,274.53,206.53,274.53z"/>
				</g>
				<g>
					<g>
						<path class="st7" d="M206.53,274.53c0,0,0.31-0.03,0.91-0.07c0.3-0.01,0.68-0.04,1.12-0.13c0.44-0.07,0.96-0.15,1.52-0.32
							c1.14-0.28,2.52-0.81,3.97-1.74c1.44-0.92,2.96-2.26,4.21-4.11c1.2-1.86,2.19-4.23,2.32-6.95c0.08-2.71,0.01-5.69,0.02-8.88
							c-0.01-6.38-0.02-13.64-0.04-21.66c-0.01-8.03-0.02-16.82-0.03-26.26c0-4.72-0.01-9.6-0.01-14.63
							c0.01-1.26-0.02-2.5-0.25-3.74c-0.25-1.22-0.61-2.45-1.2-3.58c-0.25-0.59-0.63-1.11-0.95-1.66c-0.39-0.5-0.74-1.05-1.2-1.51
							c-0.84-0.97-1.86-1.8-2.96-2.5c-2.2-1.41-4.84-2.14-7.51-2.15c-2.72,0-5.47,0-8.24,0c-5.55,0-11.23,0-17,0.01
							c-11.55,0-23.5,0-35.75,0.01c-3,0.03-5.99,0.98-8.35,2.79c-2.4,1.76-4.14,4.32-5.01,7.11c-0.88,2.81-0.53,5.81-0.61,8.75
							c0,2.94,0,5.85,0,8.74c-0.01,11.55-0.01,22.69-0.02,33.31c0,5.31-0.01,10.48-0.01,15.51c0,2.51,0,4.99-0.01,7.43
							c-0.01,1.22-0.02,2.43,0.09,3.6c0.1,0.58,0.14,1.17,0.32,1.73l0.22,0.85l0.3,0.82c1.64,4.37,5.48,7.59,9.67,8.59
							c2.09,0.57,4.25,0.41,6.35,0.44c2.1,0,4.15,0.01,6.16,0.01c16.04,0.03,29.03,0.06,38.02,0.08c4.48,0.02,7.96,0.04,10.34,0.05
							c1.17,0.01,2.07,0.02,2.69,0.03C206.22,274.52,206.53,274.53,206.53,274.53s-0.31,0.02-0.92,0.03
							c-0.62,0.01-1.52,0.01-2.69,0.03c-2.38,0.01-5.86,0.03-10.34,0.05c-8.99,0.02-21.97,0.05-38.02,0.08
							c-2.01,0-4.06,0.01-6.16,0.01c-2.08-0.02-4.28,0.14-6.45-0.44c-4.32-1.02-8.28-4.32-9.98-8.83l-0.31-0.85l-0.23-0.88
							c-0.18-0.58-0.22-1.19-0.33-1.79c-0.12-1.22-0.11-2.43-0.1-3.65c0-2.44,0-4.92-0.01-7.43c0-5.03-0.01-10.2-0.01-15.51
							c0-10.61-0.01-21.75-0.02-33.31c0-2.89,0-5.8,0-8.74c0-1.47,0-2.94,0-4.42c0.02-1.5,0.18-3.02,0.63-4.47
							c0.9-2.9,2.7-5.55,5.19-7.37c2.45-1.88,5.55-2.87,8.67-2.89c12.25,0,24.2,0,35.75,0.01c5.77,0,11.45,0,17,0.01
							c2.78,0,5.53,0,8.24,0c2.76,0.02,5.49,0.77,7.77,2.23c1.14,0.72,2.19,1.58,3.06,2.59c0.47,0.47,0.83,1.04,1.24,1.56
							c0.33,0.57,0.72,1.11,0.98,1.72c0.61,1.17,0.98,2.43,1.23,3.7c0.24,1.27,0.26,2.58,0.25,3.82c0,5.03-0.01,9.91-0.01,14.63
							c-0.01,9.44-0.02,18.23-0.03,26.26c-0.01,8.02-0.03,15.28-0.04,21.66c-0.03,3.19,0.03,6.15-0.07,8.89
							c-0.14,2.76-1.17,5.16-2.4,7.04c-1.28,1.87-2.83,3.21-4.3,4.13c-1.47,0.92-2.87,1.44-4.02,1.71
							c-0.57,0.16-1.09,0.24-1.54,0.29c-0.44,0.08-0.82,0.1-1.12,0.1C206.84,274.54,206.53,274.53,206.53,274.53z"/>
					</g>
				</g>
			</g>
			<g class="st14">
				<g>
					<path class="st4" d="M207.67,274.53h-61.59c-8.2,0-14.85-6.65-14.85-14.85v-72.18"/>
				</g>
			</g>
			<g>
				<g>
					<path class="st7" d="M134.16,256.95c-0.14,0-0.26-10.21-0.26-22.81c0-12.6,0.12-22.81,0.26-22.81s0.26,10.21,0.26,22.81
						C134.42,246.73,134.31,256.95,134.16,256.95z"/>
				</g>
			</g>
			<g>
				<g>
					<path class="st7" d="M137.35,266.5c-0.1,0.09-1.08-0.96-1.69-2.59c-0.62-1.63-0.57-3.06-0.44-3.06
						c0.15-0.01,0.34,1.34,0.92,2.88C136.72,265.27,137.47,266.41,137.35,266.5z"/>
				</g>
			</g>
			<g>
				<g>
					<path class="st7" d="M217.98,204.96c0.14,0,0.26,11.56,0.26,25.82c0,14.26-0.12,25.82-0.26,25.82
						c-0.14,0-0.26-11.56-0.26-25.82C217.72,216.52,217.84,204.96,217.98,204.96z"/>
				</g>
			</g>
			<g>
				<g>
					<path class="st7" d="M217.63,190.11c0.14,0,0.26,1.82,0.26,4.07c0,2.25-0.12,4.07-0.26,4.07c-0.14,0-0.26-1.82-0.26-4.07
						C217.37,191.93,217.49,190.11,217.63,190.11z"/>
				</g>
			</g>
			<g class="st14">
				<polygon class="st4" points="149.11,174.42 220.75,255.69 220.75,245.67 157.94,174.42 				"/>
			</g>
		</g>
		<g>
			<g>
				<path class="st4" d="M207.02,221.1c0,0.14-13.89,0.26-31.02,0.26c-17.14,0-31.03-0.12-31.03-0.26s13.89-0.26,31.03-0.26
					C193.13,220.84,207.02,220.96,207.02,221.1z"/>
			</g>
		</g>
		<g>
			<path class="st4" d="M157.02,227.12h0.95v4.12h-0.95V227.12z"/>
			<path class="st4" d="M162.13,229.42v1.81h-0.92v-1.67c0-0.51-0.24-0.75-0.64-0.75c-0.44,0-0.76,0.27-0.76,0.85v1.57h-0.92v-3.17
				h0.88v0.37c0.25-0.27,0.62-0.42,1.05-0.42C161.56,228.02,162.13,228.46,162.13,229.42z"/>
			<path class="st4" d="M162.76,229.65c0-0.95,0.74-1.63,1.77-1.63c0.67,0,1.19,0.29,1.42,0.81l-0.71,0.38
				c-0.17-0.3-0.42-0.44-0.71-0.44c-0.47,0-0.83,0.32-0.83,0.88c0,0.55,0.37,0.88,0.83,0.88c0.29,0,0.54-0.13,0.71-0.44l0.71,0.39
				c-0.23,0.51-0.75,0.8-1.42,0.8C163.5,231.29,162.76,230.61,162.76,229.65z"/>
			<path class="st4" d="M166.2,229.65c0-0.95,0.74-1.63,1.74-1.63c1.01,0,1.74,0.68,1.74,1.63s-0.73,1.63-1.74,1.63
				C166.94,231.29,166.2,230.61,166.2,229.65z M168.75,229.65c0-0.55-0.35-0.88-0.81-0.88c-0.46,0-0.81,0.33-0.81,0.88
				c0,0.55,0.35,0.88,0.81,0.88C168.4,230.53,168.75,230.2,168.75,229.65z"/>
			<path class="st4" d="M175.65,229.42v1.81h-0.92v-1.67c0-0.51-0.23-0.75-0.6-0.75c-0.41,0-0.7,0.27-0.7,0.83v1.59h-0.92v-1.67
				c0-0.51-0.22-0.75-0.6-0.75c-0.41,0-0.7,0.27-0.7,0.83v1.59h-0.92v-3.17h0.88v0.37c0.24-0.27,0.59-0.41,1-0.41
				c0.44,0,0.82,0.17,1.04,0.52c0.25-0.32,0.67-0.52,1.14-0.52C175.11,228.02,175.65,228.46,175.65,229.42z"/>
			<path class="st4" d="M176.36,227.12c0-0.29,0.23-0.51,0.57-0.51c0.34,0,0.57,0.21,0.57,0.49c0,0.31-0.23,0.53-0.57,0.53
				C176.59,227.63,176.36,227.4,176.36,227.12z M176.47,228.07h0.92v3.17h-0.92V228.07z"/>
			<path class="st4" d="M181.49,229.42v1.81h-0.92v-1.67c0-0.51-0.24-0.75-0.64-0.75c-0.44,0-0.76,0.27-0.76,0.85v1.57h-0.92v-3.17
				h0.88v0.37c0.25-0.27,0.62-0.42,1.05-0.42C180.92,228.02,181.49,228.46,181.49,229.42z"/>
			<path class="st4" d="M185.62,228.07v2.64c0,1.18-0.64,1.72-1.78,1.72c-0.6,0-1.18-0.15-1.55-0.44l0.37-0.66
				c0.27,0.22,0.71,0.36,1.12,0.36c0.65,0,0.93-0.29,0.93-0.87v-0.14c-0.24,0.27-0.59,0.39-1,0.39c-0.88,0-1.58-0.61-1.58-1.53
				s0.71-1.53,1.58-1.53c0.44,0,0.81,0.15,1.05,0.45v-0.41H185.62z M184.71,229.55c0-0.47-0.35-0.78-0.83-0.78
				c-0.48,0-0.84,0.31-0.84,0.78c0,0.47,0.35,0.78,0.84,0.78C184.37,230.33,184.71,230.02,184.71,229.55z"/>
			<path class="st4" d="M187.91,229.65c0-0.95,0.74-1.63,1.77-1.63c0.67,0,1.19,0.29,1.42,0.81l-0.71,0.38
				c-0.17-0.3-0.42-0.44-0.71-0.44c-0.47,0-0.83,0.32-0.83,0.88c0,0.55,0.37,0.88,0.83,0.88c0.29,0,0.54-0.13,0.71-0.44l0.71,0.39
				c-0.23,0.51-0.75,0.8-1.42,0.8C188.64,231.29,187.91,230.61,187.91,229.65z"/>
			<path class="st4" d="M194.43,229.43v1.81h-0.86v-0.39c-0.17,0.29-0.5,0.44-0.97,0.44c-0.74,0-1.18-0.41-1.18-0.96
				c0-0.56,0.4-0.95,1.36-0.95h0.73c0-0.39-0.24-0.62-0.73-0.62c-0.34,0-0.68,0.11-0.91,0.29l-0.33-0.64
				c0.35-0.25,0.86-0.38,1.37-0.38C193.87,228.02,194.43,228.47,194.43,229.43z M193.51,230.24v-0.32h-0.63
				c-0.43,0-0.57,0.16-0.57,0.37c0,0.23,0.19,0.38,0.52,0.38C193.14,230.67,193.4,230.53,193.51,230.24z"/>
			<path class="st4" d="M195.26,226.87h0.92v4.37h-0.92V226.87z"/>
			<path class="st4" d="M197.03,226.87h0.92v4.37h-0.92V226.87z"/>
		</g>
		<g>
			<g>
				<path class="st7" d="M179.68,214.84h-7.94c-5.3,0-9.59-4.29-9.59-9.59v-7.94c0-5.3,4.29-9.59,9.59-9.59h7.94
					c5.3,0,9.59,4.29,9.59,9.59v7.94C189.28,210.55,184.98,214.84,179.68,214.84z"/>
			</g>
			<g>
				<g>
					<g>
						<g>
							<path class="st4" d="M173.74,204.41c-0.42,1.24-1.92,1.65-2.91,0.82c-0.55-0.47-0.78-1.26-0.54-1.95
								c0.42-1.24,1.92-1.65,2.91-0.82C173.75,202.93,173.97,203.72,173.74,204.41z"/>
						</g>
					</g>
					<g>
						<g>
							<path class="st4" d="M173.66,204.08c-0.17,0.02-0.52-1.87-0.45-4.22c0.07-2.34,0.19-4.21,0.35-4.22
								c0.19-0.01,0.35,1.9,0.28,4.23C173.77,202.18,173.83,204.05,173.66,204.08z"/>
						</g>
					</g>
					<g>
						<g>
							<path class="st4" d="M179.31,196.9c0.06,0.13-1.31,0.78-3.14,0.55c-0.9-0.11-1.69-0.47-2.15-0.86
								c-0.48-0.39-0.6-0.78-0.53-0.81c0.08-0.05,0.31,0.2,0.78,0.45c0.46,0.25,1.16,0.5,1.98,0.6
								C177.89,197.04,179.26,196.71,179.31,196.9z"/>
						</g>
					</g>
				</g>
				<g>
					<g>
						<path class="st4" d="M179.49,205.67c-0.42,1.24-1.92,1.65-2.92,0.81c-0.55-0.47-0.78-1.26-0.54-1.95
							c0.42-1.24,1.92-1.65,2.92-0.81C179.5,204.19,179.72,204.99,179.49,205.67z"/>
					</g>
				</g>
				<g>
					<g>
						<path class="st4" d="M179.41,205.34c-0.17,0.02-0.52-1.87-0.45-4.22c0.07-2.34,0.19-4.21,0.35-4.22
							c0.19-0.01,0.35,1.9,0.28,4.23C179.52,203.45,179.58,205.32,179.41,205.34z"/>
					</g>
				</g>
				<g>
					<g>
						<path class="st4" d="M179.34,198.14c0.08,0.14-1.19,0.85-2.91,0.69c-1.72-0.15-2.85-1.06-2.74-1.19
							c0.09-0.16,1.25,0.43,2.8,0.56C178.03,198.35,179.27,197.97,179.34,198.14z"/>
					</g>
				</g>
			</g>
		</g>
		<g>
			<rect x="171.29" y="247.52" class="st4" width="3.02" height="8.57"/>
		</g>
		<g>
			<rect x="176.57" y="247.52" class="st4" width="3.02" height="8.57"/>
		</g>
		<g>
			<path class="st4" d="M175.72,265.49c-7.54,0-13.68-6.14-13.68-13.68c0-7.54,6.14-13.68,13.68-13.68
				c7.54,0,13.68,6.14,13.68,13.68C189.4,259.35,183.26,265.49,175.72,265.49z M175.72,239.12c-6.99,0-12.68,5.69-12.68,12.68
				s5.69,12.68,12.68,12.68c6.99,0,12.68-5.69,12.68-12.68S182.71,239.12,175.72,239.12z"/>
		</g>
		<g>
			<g>
				<polygon class="st4" points="196.93,248.13 196.93,255.27 202.14,251.7 				"/>
			</g>
			<g>
				<rect x="201.91" y="248.13" class="st4" width="1.07" height="7.35"/>
			</g>
		</g>
		<g>
			<g>
				<polygon class="st4" points="154.76,248.13 154.76,255.27 149.55,251.7 				"/>
			</g>
			<g>
				
					<rect x="148.7" y="248.13" transform="matrix(-1 -1.224647e-16 1.224647e-16 -1 298.4781 503.6092)" class="st4" width="1.07" height="7.35"/>
			</g>
		</g>
	</g>
	<g>
		<g>
			<path class="st10" d="M287.42,27.75h-85.8c-5.96,0-10.79,4.83-10.79,10.79v98.4c0,6.02,4.88,10.9,10.9,10.9h39.14l11.09,14.57
				l11.26-14.57h24.2c5.96,0,10.79-4.83,10.79-10.79V38.54C298.21,32.58,293.38,27.75,287.42,27.75z"/>
		</g>
		<g class="st14">
			<g>
				<path class="st4" d="M190.83,45.96v84.87c0,9.39,7.62,17.01,17.01,17.01h32.56c0.3,0,0.57,0.14,0.75,0.37l10.06,13.22
					c0.38,0.5,1.12,0.5,1.5,0.01l10.22-13.23c0.18-0.23,0.46-0.37,0.75-0.37h16.73c0.82,0,1.25-0.96,0.71-1.57L192.49,45.34
					C191.92,44.68,190.83,45.09,190.83,45.96z"/>
			</g>
		</g>
		<g>
			<path class="st4" d="M231.09,62.19c0,3.97-3.55,6.47-8.91,6.47c-5.33,0-8.85-2.5-8.85-6.47c0-2.26,1.17-3.94,3.19-4.97
				c-1.57-0.96-2.44-2.44-2.44-4.33c0-3.7,3.31-6.02,8.1-6.02c4.85,0,8.16,2.32,8.16,6.02c0,1.9-0.9,3.37-2.47,4.33
				C229.91,58.25,231.09,59.93,231.09,62.19z M226.15,62.04c0-1.87-1.54-3.01-3.97-3.01c-2.41,0-3.91,1.14-3.91,3.01
				c0,1.87,1.5,3.04,3.91,3.04C224.62,65.08,226.15,63.91,226.15,62.04z M218.93,53.1c0,1.6,1.26,2.59,3.25,2.59
				c2.02,0,3.31-0.99,3.31-2.59c0-1.66-1.32-2.65-3.31-2.65C220.22,50.45,218.93,51.44,218.93,53.1z"/>
			<path class="st4" d="M233.16,54.78c0-1.75,1.29-2.89,2.92-2.89c1.63,0,2.92,1.14,2.92,2.89c0,1.72-1.29,2.95-2.92,2.95
				C234.46,57.73,233.16,56.5,233.16,54.78z M233.16,65.59c0-1.75,1.29-2.89,2.92-2.89c1.63,0,2.92,1.14,2.92,2.89
				c0,1.72-1.29,2.95-2.92,2.95C234.46,68.54,233.16,67.31,233.16,65.59z"/>
			<path class="st4" d="M256.95,64.33v3.97h-15.93v-3.16l8.13-7.68c1.87-1.78,2.2-2.86,2.2-3.88c0-1.66-1.14-2.62-3.37-2.62
				c-1.81,0-3.34,0.69-4.37,2.11l-3.55-2.29c1.63-2.38,4.58-3.91,8.37-3.91c4.7,0,7.83,2.41,7.83,6.23c0,2.05-0.57,3.91-3.52,6.65
				l-4.85,4.58H256.95z"/>
			<path class="st4" d="M258.9,57.76c0-6.95,3.85-10.9,9.03-10.9c5.21,0,9.03,3.94,9.03,10.9c0,6.95-3.82,10.9-9.03,10.9
				C262.76,68.66,258.9,64.72,258.9,57.76z M272.06,57.76c0-4.79-1.69-6.77-4.12-6.77c-2.41,0-4.09,1.99-4.09,6.77
				c0,4.79,1.69,6.77,4.09,6.77C270.38,64.54,272.06,62.55,272.06,57.76z"/>
		</g>
		<g>
			<path class="st4" d="M237.79,105.78c0,2.25-1.35,3.5-3.31,3.5c-0.69,0-1.35-0.16-1.8-0.45l0.56-1.1
				c0.35,0.24,0.77,0.32,1.22,0.32c1.08,0,1.78-0.64,1.83-1.89c-0.38,0.38-0.94,0.58-1.61,0.58c-1.25,0-2.24-0.8-2.24-2.02
				c0-1.33,1.09-2.16,2.46-2.16C236.68,102.56,237.79,103.69,237.79,105.78z M236.11,104.65c0-0.56-0.42-0.96-1.13-0.96
				c-0.64,0-1.09,0.37-1.09,0.96c0,0.59,0.44,0.97,1.1,0.97C235.65,105.62,236.11,105.22,236.11,104.65z"/>
			<path class="st4" d="M238.52,105.92c0-2.14,1.19-3.36,2.78-3.36c1.6,0,2.78,1.22,2.78,3.36c0,2.14-1.18,3.36-2.78,3.36
				C239.7,109.28,238.52,108.06,238.52,105.92z M242.57,105.92c0-1.48-0.52-2.09-1.27-2.09c-0.74,0-1.26,0.61-1.26,2.09
				c0,1.48,0.52,2.09,1.26,2.09C242.05,108.01,242.57,107.4,242.57,105.92z"/>
			<path class="st4" d="M249.73,107.13c0,1.15-0.84,2.15-2.7,2.15c-0.9,0-1.85-0.25-2.48-0.7l0.59-1.15
				c0.49,0.37,1.17,0.58,1.85,0.58c0.75,0,1.22-0.32,1.22-0.84c0-0.51-0.33-0.84-1.51-0.84h-1.66l0.33-3.66h3.96v1.21h-2.71
				l-0.1,1.23h0.53C248.97,105.11,249.73,105.98,249.73,107.13z"/>
			<path class="st4" d="M250.34,105.92c0-2.14,1.19-3.36,2.78-3.36c1.61,0,2.78,1.22,2.78,3.36c0,2.14-1.18,3.36-2.78,3.36
				C251.53,109.28,250.34,108.06,250.34,105.92z M254.4,105.92c0-1.48-0.52-2.09-1.27-2.09c-0.74,0-1.26,0.61-1.26,2.09
				c0,1.48,0.52,2.09,1.26,2.09C253.88,108.01,254.4,107.4,254.4,105.92z"/>
		</g>
		<g>
			<path class="st4" d="M244.62,132.79c-14.36,0-26.05-11.68-26.05-26.04s11.68-26.04,26.05-26.04c14.36,0,26.05,11.68,26.05,26.04
				S258.98,132.79,244.62,132.79z M244.62,87.7c-10.5,0-19.05,8.54-19.05,19.04c0,10.5,8.54,19.04,19.05,19.04
				c10.5,0,19.05-8.54,19.05-19.04C263.66,96.25,255.12,87.7,244.62,87.7z"/>
		</g>
		<g>
			<path class="st11" d="M244.62,132.79c-9.3,0-17.95-5.01-22.59-13.08c-0.96-1.68-0.39-3.82,1.29-4.78
				c1.68-0.96,3.82-0.39,4.78,1.29c3.39,5.9,9.72,9.57,16.52,9.57c10.5,0,19.05-8.54,19.05-19.04c0-10.5-8.54-19.04-19.05-19.04
				c-1.93,0-3.5-1.57-3.5-3.5s1.57-3.5,3.5-3.5c14.36,0,26.05,11.68,26.05,26.04S258.98,132.79,244.62,132.79z"/>
		</g>
		<g>
			<g>
				<path class="st7" d="M194.35,126.75c-0.14,0-0.26-12.25-0.26-27.36c0-15.12,0.12-27.36,0.26-27.36c0.14,0,0.26,12.25,0.26,27.36
					C194.61,114.49,194.49,126.75,194.35,126.75z"/>
			</g>
		</g>
		<g>
			<g>
				<path class="st7" d="M198.17,138.2c-0.1,0.09-1.25-1.18-1.97-3.13c-0.74-1.95-0.7-3.66-0.57-3.66c0.15-0.01,0.35,1.61,1.06,3.47
					C197.37,136.75,198.29,138.11,198.17,138.2z"/>
			</g>
		</g>
		<g>
			<g>
				<path class="st7" d="M294.89,64.38c0.14,0,0.26,13.87,0.26,30.97c0,17.11-0.12,30.97-0.26,30.97c-0.14,0-0.26-13.86-0.26-30.97
					C294.63,78.25,294.75,64.38,294.89,64.38z"/>
			</g>
		</g>
		<g>
			<g>
				<path class="st7" d="M294.47,46.57c0.14,0,0.26,2.18,0.26,4.88c0,2.69-0.12,4.88-0.26,4.88s-0.26-2.18-0.26-4.88
					C294.21,48.75,294.32,46.57,294.47,46.57z"/>
			</g>
		</g>
		<g class="st14">
			<polygon class="st4" points="212.27,27.75 298.21,125.24 298.21,113.22 222.87,27.75 			"/>
		</g>
		<g>
			<g>
				<path class="st4" d="M255.25,111.45c0,0.14-4.43,0.26-9.88,0.26c-5.46,0-9.89-0.12-9.89-0.26c0-0.14,4.43-0.26,9.89-0.26
					C250.82,111.19,255.25,111.31,255.25,111.45z"/>
			</g>
		</g>
		<g>
			<g>
				<path class="st4" d="M272.48,72.02c0,0.14-11.81,0.26-26.37,0.26c-14.56,0-26.37-0.12-26.37-0.26s11.8-0.26,26.37-0.26
					C260.67,71.76,272.48,71.88,272.48,72.02z"/>
			</g>
		</g>
	</g>
	<g>
		<g>
			<g>
				<g>
					<path class="st10" d="M160.16,166.47H90c-7.95,0-14.4-6.45-14.4-14.4V70.21c0-7.95,6.45-14.4,14.4-14.4h70.16
						c7.95,0,14.4,6.45,14.4,14.4v81.87C174.56,160.03,168.11,166.47,160.16,166.47z"/>
				</g>
				<g>
					<g>
						<path class="st7" d="M160.16,166.47c0,0,0.34-0.04,1.02-0.08c0.34-0.01,0.75-0.07,1.24-0.16c0.5-0.06,1.05-0.21,1.68-0.38
							c1.25-0.38,2.77-0.99,4.33-2.11c1.55-1.11,3.13-2.72,4.32-4.9c0.55-1.11,1.06-2.32,1.35-3.67c0.29-1.35,0.38-2.78,0.34-4.31
							c-0.01-3.04-0.01-6.34-0.02-9.88c-0.01-7.09-0.02-15.16-0.04-24.09c-0.01-8.92-0.02-18.7-0.03-29.19
							c0-5.25-0.01-10.67-0.01-16.26c0.02-1.41-0.04-2.78-0.3-4.16c-0.3-1.36-0.8-2.69-1.46-3.93c-1.38-2.46-3.51-4.57-6.12-5.84
							c-1.29-0.66-2.7-1.1-4.16-1.3c-1.44-0.24-2.94-0.17-4.46-0.17c-3.02,0-6.08,0-9.16,0c-6.18,0-12.48,0-18.9,0.01
							c-12.84,0-26.13,0-39.75,0.01c-3.35,0.01-6.65,1.23-9.16,3.37c-2.54,2.12-4.22,5.17-4.77,8.37c-0.3,1.6-0.2,3.25-0.22,4.9
							c0,1.65,0,3.28,0,4.92c0,3.27,0,6.5,0,9.71c-0.01,12.84-0.01,25.23-0.02,37.03c0,5.9-0.01,11.65-0.01,17.24
							c0,2.79,0,5.55-0.01,8.26c0,1.36-0.04,2.7,0.12,4c0.14,1.31,0.54,2.56,1.01,3.76c2.02,4.8,6.67,8.03,11.45,8.54
							c1.19,0.11,2.39,0.1,3.59,0.1c1.19,0,2.37,0,3.54,0c2.34,0,4.62,0.01,6.85,0.01c17.84,0.03,32.28,0.06,42.27,0.08
							c4.98,0.02,8.85,0.04,11.49,0.05c1.31,0.01,2.3,0.02,2.99,0.03C159.81,166.45,160.16,166.47,160.16,166.47
							s-0.34,0.02-1.02,0.03c-0.69,0.01-1.68,0.01-2.99,0.03c-2.64,0.01-6.51,0.03-11.49,0.05c-9.99,0.02-24.43,0.05-42.27,0.08
							c-2.23,0-4.51,0.01-6.85,0.01c-1.17,0-2.35,0-3.54,0c-1.19,0.01-2.4,0.02-3.63-0.09c-2.44-0.3-4.9-1.16-6.96-2.71
							c-2.09-1.5-3.77-3.62-4.84-6.05c-0.49-1.24-0.9-2.53-1.04-3.88c-0.17-1.35-0.13-2.71-0.13-4.06c0-2.71,0-5.47-0.01-8.26
							c0-5.59-0.01-11.34-0.01-17.24c0-11.8-0.01-24.19-0.02-37.03c0-3.21,0-6.45,0-9.71c0-1.63,0-3.27,0-4.92
							c0.02-1.63-0.09-3.31,0.22-4.99c0.57-3.32,2.31-6.48,4.94-8.68c2.61-2.22,6.03-3.49,9.5-3.5c13.61,0,26.91,0,39.75,0.01
							c6.42,0,12.73,0,18.9,0.01c3.09,0,6.14,0,9.16,0c1.5,0.01,3.02-0.06,4.53,0.18c1.5,0.22,2.96,0.67,4.3,1.35
							c2.7,1.32,4.89,3.5,6.32,6.04c0.69,1.29,1.2,2.66,1.51,4.07c0.27,1.41,0.33,2.86,0.31,4.25c0,5.59-0.01,11.02-0.01,16.26
							c-0.01,10.49-0.02,20.27-0.03,29.19c-0.01,8.92-0.03,16.99-0.04,24.09c-0.01,3.54-0.01,6.84-0.02,9.88
							c0.03,1.51-0.07,2.99-0.37,4.35c-0.3,1.37-0.82,2.6-1.39,3.72c-1.22,2.2-2.83,3.82-4.41,4.93c-1.58,1.12-3.13,1.72-4.39,2.08
							c-0.64,0.17-1.2,0.31-1.7,0.36c-0.49,0.08-0.91,0.13-1.25,0.13C160.5,166.47,160.16,166.47,160.16,166.47z"/>
					</g>
				</g>
			</g>
			<g class="st14">
				<g>
					<path class="st4" d="M160.09,166.47H90.41c-8.18,0-14.8-6.63-14.8-14.8v-81.4"/>
				</g>
			</g>
			<g>
				<g>
					<path class="st7" d="M78.84,147.03c-0.14,0-0.26-11.29-0.26-25.21c0-13.93,0.12-25.22,0.26-25.22c0.14,0,0.26,11.29,0.26,25.22
						C79.1,135.74,78.99,147.03,78.84,147.03z"/>
				</g>
			</g>
			<g>
				<g>
					<path class="st7" d="M82.36,157.59c-0.1,0.09-1.17-1.08-1.84-2.88c-0.68-1.8-0.64-3.38-0.51-3.38c0.15-0.01,0.34,1.48,1,3.19
						C81.65,156.24,82.49,157.5,82.36,157.59z"/>
				</g>
			</g>
			<g>
				<g>
					<path class="st7" d="M171.5,89.56c0.14,0,0.26,12.78,0.26,28.54c0,15.76-0.12,28.54-0.26,28.54s-0.26-12.78-0.26-28.54
						C171.24,102.34,171.35,89.56,171.5,89.56z"/>
				</g>
			</g>
			<g>
				<g>
					<path class="st7" d="M171.11,73.14c0.14,0,0.26,2.01,0.26,4.5c0,2.48-0.12,4.5-0.26,4.5c-0.14,0-0.26-2.01-0.26-4.5
						C170.85,75.16,170.96,73.14,171.11,73.14z"/>
				</g>
			</g>
			<g class="st14">
				<polygon class="st4" points="95.36,55.81 174.56,145.64 174.56,134.57 105.13,55.81 				"/>
			</g>
		</g>
		<g>
			<g>
				<path class="st4" d="M159.38,107.41c0,0.14-15.36,0.26-34.29,0.26c-18.94,0-34.3-0.12-34.3-0.26c0-0.14,15.35-0.26,34.3-0.26
					C144.02,107.15,159.38,107.26,159.38,107.41z"/>
			</g>
		</g>
		<g>
			<path class="st4" d="M104.11,114.05h1.06v4.56h-1.06V114.05z"/>
			<path class="st4" d="M109.76,116.61v2.01h-1.02v-1.85c0-0.57-0.26-0.83-0.71-0.83c-0.49,0-0.84,0.3-0.84,0.94v1.73h-1.02v-3.51
				h0.97v0.41c0.27-0.3,0.68-0.46,1.16-0.46C109.13,115.06,109.76,115.54,109.76,116.61z"/>
			<path class="st4" d="M110.45,116.86c0-1.06,0.81-1.81,1.95-1.81c0.74,0,1.32,0.32,1.57,0.89l-0.79,0.42
				c-0.19-0.33-0.47-0.48-0.79-0.48c-0.51,0-0.92,0.36-0.92,0.97c0,0.61,0.4,0.97,0.92,0.97c0.32,0,0.6-0.14,0.79-0.48l0.79,0.43
				c-0.25,0.56-0.83,0.89-1.57,0.89C111.27,118.66,110.45,117.92,110.45,116.86z"/>
			<path class="st4" d="M114.26,116.86c0-1.06,0.81-1.81,1.93-1.81c1.11,0,1.92,0.75,1.92,1.81c0,1.06-0.81,1.8-1.92,1.8
				C115.07,118.66,114.26,117.92,114.26,116.86z M117.08,116.86c0-0.61-0.38-0.97-0.89-0.97s-0.9,0.37-0.9,0.97
				c0,0.61,0.39,0.97,0.9,0.97S117.08,117.47,117.08,116.86z"/>
			<path class="st4" d="M124.7,116.61v2.01h-1.02v-1.85c0-0.57-0.25-0.83-0.66-0.83c-0.46,0-0.78,0.29-0.78,0.92v1.76h-1.02v-1.85
				c0-0.57-0.24-0.83-0.66-0.83c-0.45,0-0.77,0.29-0.77,0.92v1.76h-1.02v-3.51h0.97v0.4c0.26-0.3,0.65-0.46,1.1-0.46
				c0.49,0,0.91,0.19,1.15,0.57c0.28-0.36,0.74-0.57,1.26-0.57C124.1,115.06,124.7,115.54,124.7,116.61z"/>
			<path class="st4" d="M125.49,114.05c0-0.32,0.25-0.57,0.63-0.57c0.38,0,0.63,0.23,0.63,0.55c0,0.34-0.25,0.59-0.63,0.59
				C125.74,114.62,125.49,114.37,125.49,114.05z M125.61,115.11h1.02v3.51h-1.02V115.11z"/>
			<path class="st4" d="M131.16,116.61v2.01h-1.02v-1.85c0-0.57-0.26-0.83-0.71-0.83c-0.49,0-0.84,0.3-0.84,0.94v1.73h-1.02v-3.51
				h0.97v0.41c0.27-0.3,0.68-0.46,1.16-0.46C130.53,115.06,131.16,115.54,131.16,116.61z"/>
			<path class="st4" d="M135.73,115.11v2.92c0,1.3-0.7,1.9-1.97,1.9c-0.66,0-1.31-0.16-1.72-0.48l0.4-0.73
				c0.3,0.24,0.79,0.4,1.24,0.4c0.72,0,1.03-0.33,1.03-0.96v-0.15c-0.27,0.29-0.65,0.44-1.11,0.44c-0.97,0-1.75-0.67-1.75-1.69
				c0-1.02,0.78-1.69,1.75-1.69c0.49,0,0.89,0.16,1.16,0.5v-0.45H135.73z M134.72,116.75c0-0.51-0.38-0.86-0.92-0.86
				c-0.53,0-0.93,0.35-0.93,0.86c0,0.51,0.39,0.86,0.93,0.86C134.34,117.61,134.72,117.26,134.72,116.75z"/>
			<path class="st4" d="M138.25,116.86c0-1.06,0.81-1.81,1.95-1.81c0.74,0,1.32,0.32,1.57,0.89l-0.79,0.42
				c-0.19-0.33-0.47-0.48-0.79-0.48c-0.51,0-0.92,0.36-0.92,0.97c0,0.61,0.4,0.97,0.92,0.97c0.32,0,0.6-0.14,0.79-0.48l0.79,0.43
				c-0.25,0.56-0.83,0.89-1.57,0.89C139.07,118.66,138.25,117.92,138.25,116.86z"/>
			<path class="st4" d="M145.46,116.61v2h-0.95v-0.44c-0.19,0.32-0.55,0.49-1.07,0.49c-0.82,0-1.31-0.46-1.31-1.06
				c0-0.62,0.44-1.05,1.5-1.05h0.81c0-0.44-0.26-0.69-0.81-0.69c-0.37,0-0.76,0.12-1.01,0.33l-0.36-0.71
				c0.38-0.27,0.95-0.42,1.51-0.42C144.84,115.06,145.46,115.55,145.46,116.61z M144.44,117.51v-0.36h-0.7
				c-0.48,0-0.63,0.18-0.63,0.41c0,0.25,0.21,0.42,0.57,0.42C144.03,117.98,144.33,117.82,144.44,117.51z"/>
			<path class="st4" d="M146.38,113.78h1.02v4.83h-1.02V113.78z"/>
			<path class="st4" d="M148.34,113.78h1.02v4.83h-1.02V113.78z"/>
		</g>
		<g>
			<g>
				<circle class="st11" cx="104.52" cy="140.05" r="12.97"/>
			</g>
			<g>
				<path class="st4" d="M98.34,143.06l3.35-1.33v-2.34h4.54v1.83l3.76,1.83l1.79-2.84c0,0-2.8-3.26-7.84-3.16
					c-4.53,0.08-7.03,2.44-7.49,2.92c-0.05,0.05-0.05,0.12-0.01,0.18L98.34,143.06z"/>
			</g>
		</g>
		<g>
			<g>
				
					<ellipse transform="matrix(0.1595 -0.9872 0.9872 0.1595 -16.727 263.5398)" class="st7" cx="146.41" cy="141.59" rx="12.97" ry="12.96"/>
			</g>
			<g>
				<path class="st4" d="M151.43,145.27l-2.8-2.27l-2.04,1.14l-2.22-3.96l1.6-0.9l-0.24-4.18l-2.56-0.13
					c-0.48-0.02-0.92,0.3-1.01,0.78c-0.29,1.4-0.56,4.4,1.29,7.57c1.74,2.97,4.04,4.28,5.33,4.81c0.54,0.22,1.16-0.01,1.43-0.53
					L151.43,145.27z"/>
			</g>
		</g>
		<g>
			<g>
				<path class="st7" d="M130.17,100.49h-10.8c-5.3,0-9.59-4.29-9.59-9.59V80.1c0-5.3,4.29-9.59,9.59-9.59h10.8
					c5.3,0,9.59,4.29,9.59,9.59v10.8C139.76,96.19,135.47,100.49,130.17,100.49z"/>
			</g>
		</g>
		<g>
			<g>
				<path class="st4" d="M126.41,85.74c1.3-0.55,2.23-1.89,2.24-3.47c0.01-2.07-1.56-3.76-3.5-3.77c-1.94-0.01-3.53,1.66-3.53,3.74
					c-0.01,1.6,0.93,2.96,2.24,3.5c-5.42,0.82-5.17,6.7-5.17,6.7l12.81,0.06C131.48,92.5,131.78,86.55,126.41,85.74z"/>
			</g>
		</g>
	</g>
</g>
<g id="Plant" class="st5">
	<g class="st6">
		<g>
			<g>
				<g>
					<path class="st11" d="M198.47,435.1c2.25,0.37,4.21,1.86,5.48,3.75c1.27,1.89,1.91,4.14,2.22,6.4
						c0.59,4.37-0.74,9.26-2.48,13.31c-4.36-2.22-6.56-7.45-7.5-10.18C194.68,444.08,194.59,435.38,198.47,435.1"/>
				</g>
			</g>
		</g>
		<g>
			<g>
				<g>
					<path class="st11" d="M209.6,464.52c-1.18-2.26-0.84-5.14,0.59-7.24c1.43-2.11,3.83-3.45,6.33-3.88
						c1.16-0.2,2.47-0.18,3.36,0.59c0.83,0.72,1.07,1.96,0.81,3.03c-0.26,1.07-0.93,1.99-1.69,2.79
						C216.39,462.53,213.37,464.69,209.6,464.52"/>
				</g>
			</g>
		</g>
		<g>
			<g>
				<g>
					<g>
						<path class="st7" d="M208.3,478.69c-0.02,0-0.05-0.32-0.09-0.9c-0.04-0.64-0.1-1.47-0.16-2.47c-0.1-2.07-0.31-5.02,0.53-8.14
							c0.82-3.11,2.43-5.66,3.96-7.11c0.76-0.73,1.45-1.23,1.96-1.53c0.25-0.16,0.46-0.25,0.59-0.32c0.14-0.07,0.21-0.1,0.22-0.09
							c0.04,0.06-1.16,0.61-2.61,2.1c-1.46,1.46-3,3.97-3.81,7.03c-0.82,3.06-0.66,5.98-0.62,8.05c0.03,1.04,0.06,1.89,0.06,2.47
							C208.34,478.37,208.32,478.69,208.3,478.69z"/>
					</g>
				</g>
			</g>
		</g>
		<g>
			<g>
				<g>
					<g>
						<path class="st7" d="M199.12,441.72c0.01,0,0.06,0.12,0.14,0.37c0.09,0.28,0.2,0.64,0.34,1.08c0.29,0.94,0.69,2.3,1.18,3.99
							c0.97,3.37,2.24,8.05,3.53,13.25c1.29,5.2,2.35,9.93,3.06,13.37c0.36,1.72,0.64,3.11,0.82,4.07c0.08,0.46,0.15,0.82,0.2,1.11
							c0.04,0.26,0.06,0.39,0.05,0.39c-0.01,0-0.05-0.13-0.11-0.38c-0.07-0.28-0.15-0.65-0.26-1.1c-0.23-1-0.54-2.37-0.92-4.05
							c-0.77-3.42-1.87-8.14-3.15-13.34c-1.29-5.19-2.52-9.88-3.44-13.27c-0.45-1.67-0.81-3.03-1.08-4.01
							c-0.12-0.45-0.21-0.81-0.28-1.09C199.14,441.85,199.11,441.72,199.12,441.72z"/>
					</g>
				</g>
			</g>
		</g>
		<g>
			<g>
				<g>
					<path class="st11" d="M204.07,468.66c-2.11-4.93-6.74-8.7-12-9.77c-1.34-0.27-2.99-0.25-3.75,0.88
						c-0.76,1.14-0.14,2.68,0.66,3.79c3.3,4.64,9.59,6.91,15.1,5.46"/>
				</g>
			</g>
		</g>
		<g>
			<g>
				<g>
					<g>
						<path class="st7" d="M193.67,462.78c0-0.02,0.3,0.03,0.84,0.14c0.27,0.05,0.6,0.12,0.97,0.24c0.37,0.12,0.81,0.22,1.26,0.41
							c0.46,0.18,0.97,0.36,1.49,0.62c0.53,0.23,1.07,0.54,1.63,0.87c1.11,0.69,2.27,1.55,3.34,2.61c1.06,1.07,1.93,2.23,2.61,3.34
							c0.32,0.57,0.63,1.1,0.86,1.64c0.26,0.52,0.44,1.03,0.6,1.49c0.19,0.46,0.27,0.9,0.38,1.27c0.11,0.37,0.17,0.71,0.22,0.98
							c0.1,0.54,0.14,0.84,0.12,0.85c-0.07,0.02-0.25-1.19-0.93-3.02c-0.18-0.45-0.37-0.95-0.63-1.46c-0.23-0.52-0.55-1.05-0.87-1.6
							c-0.68-1.09-1.54-2.22-2.59-3.27c-1.05-1.04-2.19-1.89-3.27-2.58c-0.55-0.33-1.08-0.64-1.59-0.88c-0.5-0.27-1-0.46-1.45-0.65
							C194.85,463.07,193.65,462.85,193.67,462.78z"/>
					</g>
				</g>
			</g>
		</g>
	</g>
</g>
<g id="Floor">
	<g class="st5">
		<g class="st6">
			<path class="st7" d="M456.14,479.35c0,0.14-92.3,0.26-206.13,0.26c-113.87,0-206.15-0.12-206.15-0.26
				c0-0.14,92.28-0.26,206.15-0.26C363.84,479.09,456.14,479.21,456.14,479.35z"/>
		</g>
	</g>
	<g id="Layer_7">
		<g>
			<g>
				<path class="st2" d="M295.82,489.27c10.92,1.32,21.91,1.86,32.91,1.47c8.93-0.32,18.09-0.97,25.76-5.99
					c2.09-1.37,1.25-4.54-1.26-4.66c-6.01-0.28-11.7,1.42-17.55,2.49c-6.58,1.2-13.26,1.86-19.95,2c-3.14,0.07-6.29,0.02-9.43-0.14
					c-2.14-0.11-4.96-0.95-7.07-0.33c-2.45,0.72-3.26,3.32-1.86,5.39c2.01,2.98,7.28,3.78,10.49,4.18c5.6,0.7,11.33,0.74,16.97,0.88
					c10.4,0.26,20.82-0.2,29.1-7.22c2.46-2.09-1.1-5.61-3.54-3.54c-6.9,5.86-16.04,5.97-24.63,5.78c-4.34-0.09-8.68-0.24-13.01-0.5
					c-1.95-0.12-3.91-0.21-5.84-0.57c-1.06-0.19-2.11-0.46-3.13-0.8c-3.5,0.9-4.23,1.36-2.19,1.4c3.26,1.31,8.68,0.52,12.24,0.5
					c4.4-0.03,8.8-0.28,13.17-0.75c8.66-0.94,17.52-4.16,26.22-3.76c-0.42-1.55-0.84-3.11-1.26-4.66
					c-7.97,5.22-17.89,5.25-27.11,5.41c-9.71,0.16-19.4-0.41-29.03-1.57C292.64,483.89,292.66,488.89,295.82,489.27L295.82,489.27z"
					/>
			</g>
		</g>
	</g>
</g>
</svg>
